<svg width="902" height="601" viewBox="0 0 902 601" fill="none" xmlns="http://www.w3.org/2000/svg">
<path fill-rule="evenodd" clip-rule="evenodd" d="M-187.754 -126.605H-257.754V-56.605H-187.754V-126.605ZM-258.754 -127.605V-55.605H-186.754V-127.605H-258.754Z" fill="#C0D1F9" fill-opacity="0.13"/>
<path fill-rule="evenodd" clip-rule="evenodd" d="M-116.754 -126.605H-186.754V-56.605H-116.754V-126.605ZM-187.754 -127.605V-55.605H-115.754V-127.605H-187.754Z" fill="#C0D1F9" fill-opacity="0.13"/>
<path fill-rule="evenodd" clip-rule="evenodd" d="M-45.7539 -126.605H-115.754V-56.605H-45.7539V-126.605ZM-116.754 -127.605V-55.605H-44.7539V-127.605H-116.754Z" fill="#C0D1F9" fill-opacity="0.13"/>
<path fill-rule="evenodd" clip-rule="evenodd" d="M25.2461 -126.605H-44.7539V-56.605H25.2461V-126.605ZM-45.7539 -127.605V-55.605H26.2461V-127.605H-45.7539Z" fill="#C0D1F9" fill-opacity="0.13"/>
<path fill-rule="evenodd" clip-rule="evenodd" d="M96.2461 -126.605H26.2461V-56.605H96.2461V-126.605ZM25.2461 -127.605V-55.605H97.2461V-127.605H25.2461Z" fill="#C0D1F9" fill-opacity="0.13"/>
<path fill-rule="evenodd" clip-rule="evenodd" d="M167.246 -126.605H97.2461V-56.605H167.246V-126.605ZM96.2461 -127.605V-55.605H168.246V-127.605H96.2461Z" fill="#C0D1F9" fill-opacity="0.13"/>
<path fill-rule="evenodd" clip-rule="evenodd" d="M238.246 -126.605H168.246V-56.605H238.246V-126.605ZM167.246 -127.605V-55.605H239.246V-127.605H167.246Z" fill="#C0D1F9" fill-opacity="0.13"/>
<path fill-rule="evenodd" clip-rule="evenodd" d="M309.246 -126.605H239.246V-56.605H309.246V-126.605ZM238.246 -127.605V-55.605H310.246V-127.605H238.246Z" fill="#C0D1F9" fill-opacity="0.13"/>
<path fill-rule="evenodd" clip-rule="evenodd" d="M380.246 -126.605H310.246V-56.605H380.246V-126.605ZM309.246 -127.605V-55.605H381.246V-127.605H309.246Z" fill="#C0D1F9" fill-opacity="0.13"/>
<path fill-rule="evenodd" clip-rule="evenodd" d="M451.246 -126.605H381.246V-56.605H451.246V-126.605ZM380.246 -127.605V-55.605H452.246V-127.605H380.246Z" fill="#C0D1F9" fill-opacity="0.13"/>
<path fill-rule="evenodd" clip-rule="evenodd" d="M522.246 -126.605H452.246V-56.605H522.246V-126.605ZM451.246 -127.605V-55.605H523.246V-127.605H451.246Z" fill="#C0D1F9" fill-opacity="0.13"/>
<path fill-rule="evenodd" clip-rule="evenodd" d="M593.246 -126.605H523.246V-56.605H593.246V-126.605ZM522.246 -127.605V-55.605H594.246V-127.605H522.246Z" fill="#C0D1F9" fill-opacity="0.13"/>
<path fill-rule="evenodd" clip-rule="evenodd" d="M664.246 -126.605H594.246V-56.605H664.246V-126.605ZM593.246 -127.605V-55.605H665.246V-127.605H593.246Z" fill="#C0D1F9" fill-opacity="0.13"/>
<path fill-rule="evenodd" clip-rule="evenodd" d="M735.246 -126.605H665.246V-56.605H735.246V-126.605ZM664.246 -127.605V-55.605H736.246V-127.605H664.246Z" fill="#C0D1F9" fill-opacity="0.13"/>
<path fill-rule="evenodd" clip-rule="evenodd" d="M806.246 -126.605H736.246V-56.605H806.246V-126.605ZM735.246 -127.605V-55.605H807.246V-127.605H735.246Z" fill="#C0D1F9" fill-opacity="0.13"/>
<path fill-rule="evenodd" clip-rule="evenodd" d="M877.246 -126.605H807.246V-56.605H877.246V-126.605ZM806.246 -127.605V-55.605H878.246V-127.605H806.246Z" fill="#C0D1F9" fill-opacity="0.13"/>
<path fill-rule="evenodd" clip-rule="evenodd" d="M948.246 -126.605H878.246V-56.605H948.246V-126.605ZM877.246 -127.605V-55.605H949.246V-127.605H877.246Z" fill="#C0D1F9" fill-opacity="0.13"/>
<path fill-rule="evenodd" clip-rule="evenodd" d="M1019.25 -126.605H949.246V-56.605H1019.25V-126.605ZM948.246 -127.605V-55.605H1020.25V-127.605H948.246Z" fill="#C0D1F9" fill-opacity="0.13"/>
<path fill-rule="evenodd" clip-rule="evenodd" d="M1090.25 -126.605H1020.25V-56.605H1090.25V-126.605ZM1019.25 -127.605V-55.605H1091.25V-127.605H1019.25Z" fill="#C0D1F9" fill-opacity="0.13"/>
<path fill-rule="evenodd" clip-rule="evenodd" d="M1161.25 -126.605H1091.25V-56.605H1161.25V-126.605ZM1090.25 -127.605V-55.605H1162.25V-127.605H1090.25Z" fill="#C0D1F9" fill-opacity="0.13"/>
<path fill-rule="evenodd" clip-rule="evenodd" d="M-187.754 -55.605H-257.754V14.395H-187.754V-55.605ZM-258.754 -56.605V15.395H-186.754V-56.605H-258.754Z" fill="#C0D1F9" fill-opacity="0.13"/>
<path fill-rule="evenodd" clip-rule="evenodd" d="M-116.754 -55.605H-186.754V14.395H-116.754V-55.605ZM-187.754 -56.605V15.395H-115.754V-56.605H-187.754Z" fill="#C0D1F9" fill-opacity="0.13"/>
<path fill-rule="evenodd" clip-rule="evenodd" d="M-45.7539 -55.605H-115.754V14.395H-45.7539V-55.605ZM-116.754 -56.605V15.395H-44.7539V-56.605H-116.754Z" fill="#C0D1F9" fill-opacity="0.13"/>
<path fill-rule="evenodd" clip-rule="evenodd" d="M25.2461 -55.605H-44.7539V14.395H25.2461V-55.605ZM-45.7539 -56.605V15.395H26.2461V-56.605H-45.7539Z" fill="#C0D1F9" fill-opacity="0.13"/>
<path fill-rule="evenodd" clip-rule="evenodd" d="M96.2461 -55.605H26.2461V14.395H96.2461V-55.605ZM25.2461 -56.605V15.395H97.2461V-56.605H25.2461Z" fill="#C0D1F9" fill-opacity="0.13"/>
<path fill-rule="evenodd" clip-rule="evenodd" d="M167.246 -55.605H97.2461V14.395H167.246V-55.605ZM96.2461 -56.605V15.395H168.246V-56.605H96.2461Z" fill="#C0D1F9" fill-opacity="0.13"/>
<path fill-rule="evenodd" clip-rule="evenodd" d="M238.246 -55.605H168.246V14.395H238.246V-55.605ZM167.246 -56.605V15.395H239.246V-56.605H167.246Z" fill="#C0D1F9" fill-opacity="0.13"/>
<path fill-rule="evenodd" clip-rule="evenodd" d="M309.246 -55.605H239.246V14.395H309.246V-55.605ZM238.246 -56.605V15.395H310.246V-56.605H238.246Z" fill="#C0D1F9" fill-opacity="0.13"/>
<path fill-rule="evenodd" clip-rule="evenodd" d="M380.246 -55.605H310.246V14.395H380.246V-55.605ZM309.246 -56.605V15.395H381.246V-56.605H309.246Z" fill="#C0D1F9" fill-opacity="0.13"/>
<path fill-rule="evenodd" clip-rule="evenodd" d="M451.246 -55.605H381.246V14.395H451.246V-55.605ZM380.246 -56.605V15.395H452.246V-56.605H380.246Z" fill="#C0D1F9" fill-opacity="0.13"/>
<path fill-rule="evenodd" clip-rule="evenodd" d="M522.246 -55.605H452.246V14.395H522.246V-55.605ZM451.246 -56.605V15.395H523.246V-56.605H451.246Z" fill="#C0D1F9" fill-opacity="0.13"/>
<path fill-rule="evenodd" clip-rule="evenodd" d="M593.246 -55.605H523.246V14.395H593.246V-55.605ZM522.246 -56.605V15.395H594.246V-56.605H522.246Z" fill="#C0D1F9" fill-opacity="0.13"/>
<path fill-rule="evenodd" clip-rule="evenodd" d="M664.246 -55.605H594.246V14.395H664.246V-55.605ZM593.246 -56.605V15.395H665.246V-56.605H593.246Z" fill="#C0D1F9" fill-opacity="0.13"/>
<path fill-rule="evenodd" clip-rule="evenodd" d="M735.246 -55.605H665.246V14.395H735.246V-55.605ZM664.246 -56.605V15.395H736.246V-56.605H664.246Z" fill="#C0D1F9" fill-opacity="0.13"/>
<path fill-rule="evenodd" clip-rule="evenodd" d="M806.246 -55.605H736.246V14.395H806.246V-55.605ZM735.246 -56.605V15.395H807.246V-56.605H735.246Z" fill="#C0D1F9" fill-opacity="0.13"/>
<path fill-rule="evenodd" clip-rule="evenodd" d="M877.246 -55.605H807.246V14.395H877.246V-55.605ZM806.246 -56.605V15.395H878.246V-56.605H806.246Z" fill="#C0D1F9" fill-opacity="0.13"/>
<path fill-rule="evenodd" clip-rule="evenodd" d="M948.246 -55.605H878.246V14.395H948.246V-55.605ZM877.246 -56.605V15.395H949.246V-56.605H877.246Z" fill="#C0D1F9" fill-opacity="0.13"/>
<path fill-rule="evenodd" clip-rule="evenodd" d="M1019.25 -55.605H949.246V14.395H1019.25V-55.605ZM948.246 -56.605V15.395H1020.25V-56.605H948.246Z" fill="#C0D1F9" fill-opacity="0.13"/>
<path fill-rule="evenodd" clip-rule="evenodd" d="M1090.25 -55.605H1020.25V14.395H1090.25V-55.605ZM1019.25 -56.605V15.395H1091.25V-56.605H1019.25Z" fill="#C0D1F9" fill-opacity="0.13"/>
<path fill-rule="evenodd" clip-rule="evenodd" d="M1161.25 -55.605H1091.25V14.395H1161.25V-55.605ZM1090.25 -56.605V15.395H1162.25V-56.605H1090.25Z" fill="#C0D1F9" fill-opacity="0.13"/>
<path fill-rule="evenodd" clip-rule="evenodd" d="M-187.754 15.395H-257.754V85.395H-187.754V15.395ZM-258.754 14.395V86.395H-186.754V14.395H-258.754Z" fill="#C0D1F9" fill-opacity="0.13"/>
<path fill-rule="evenodd" clip-rule="evenodd" d="M-116.754 15.395H-186.754V85.395H-116.754V15.395ZM-187.754 14.395V86.395H-115.754V14.395H-187.754Z" fill="#C0D1F9" fill-opacity="0.13"/>
<path fill-rule="evenodd" clip-rule="evenodd" d="M-45.7539 15.395H-115.754V85.395H-45.7539V15.395ZM-116.754 14.395V86.395H-44.7539V14.395H-116.754Z" fill="#C0D1F9" fill-opacity="0.13"/>
<path fill-rule="evenodd" clip-rule="evenodd" d="M25.2461 15.395H-44.7539V85.395H25.2461V15.395ZM-45.7539 14.395V86.395H26.2461V14.395H-45.7539Z" fill="#C0D1F9" fill-opacity="0.13"/>
<path fill-rule="evenodd" clip-rule="evenodd" d="M96.2461 15.395H26.2461V85.395H96.2461V15.395ZM25.2461 14.395V86.395H97.2461V14.395H25.2461Z" fill="#C0D1F9" fill-opacity="0.13"/>
<path fill-rule="evenodd" clip-rule="evenodd" d="M167.246 15.395H97.2461V85.395H167.246V15.395ZM96.2461 14.395V86.395H168.246V14.395H96.2461Z" fill="#C0D1F9" fill-opacity="0.13"/>
<path fill-rule="evenodd" clip-rule="evenodd" d="M238.246 15.395H168.246V85.395H238.246V15.395ZM167.246 14.395V86.395H239.246V14.395H167.246Z" fill="#C0D1F9" fill-opacity="0.13"/>
<path fill-rule="evenodd" clip-rule="evenodd" d="M309.246 15.395H239.246V85.395H309.246V15.395ZM238.246 14.395V86.395H310.246V14.395H238.246Z" fill="#C0D1F9" fill-opacity="0.13"/>
<path fill-rule="evenodd" clip-rule="evenodd" d="M380.246 15.395H310.246V85.395H380.246V15.395ZM309.246 14.395V86.395H381.246V14.395H309.246Z" fill="#C0D1F9" fill-opacity="0.13"/>
<path fill-rule="evenodd" clip-rule="evenodd" d="M451.246 15.395H381.246V85.395H451.246V15.395ZM380.246 14.395V86.395H452.246V14.395H380.246Z" fill="#C0D1F9" fill-opacity="0.13"/>
<path fill-rule="evenodd" clip-rule="evenodd" d="M522.246 15.395H452.246V85.395H522.246V15.395ZM451.246 14.395V86.395H523.246V14.395H451.246Z" fill="#C0D1F9" fill-opacity="0.13"/>
<path fill-rule="evenodd" clip-rule="evenodd" d="M593.246 15.395H523.246V85.395H593.246V15.395ZM522.246 14.395V86.395H594.246V14.395H522.246Z" fill="#C0D1F9" fill-opacity="0.13"/>
<path fill-rule="evenodd" clip-rule="evenodd" d="M664.246 15.395H594.246V85.395H664.246V15.395ZM593.246 14.395V86.395H665.246V14.395H593.246Z" fill="#C0D1F9" fill-opacity="0.13"/>
<path fill-rule="evenodd" clip-rule="evenodd" d="M735.246 15.395H665.246V85.395H735.246V15.395ZM664.246 14.395V86.395H736.246V14.395H664.246Z" fill="#C0D1F9" fill-opacity="0.13"/>
<path fill-rule="evenodd" clip-rule="evenodd" d="M806.246 15.395H736.246V85.395H806.246V15.395ZM735.246 14.395V86.395H807.246V14.395H735.246Z" fill="#C0D1F9" fill-opacity="0.13"/>
<path fill-rule="evenodd" clip-rule="evenodd" d="M877.246 15.395H807.246V85.395H877.246V15.395ZM806.246 14.395V86.395H878.246V14.395H806.246Z" fill="#C0D1F9" fill-opacity="0.13"/>
<path fill-rule="evenodd" clip-rule="evenodd" d="M948.246 15.395H878.246V85.395H948.246V15.395ZM877.246 14.395V86.395H949.246V14.395H877.246Z" fill="#C0D1F9" fill-opacity="0.13"/>
<path fill-rule="evenodd" clip-rule="evenodd" d="M1019.25 15.395H949.246V85.395H1019.25V15.395ZM948.246 14.395V86.395H1020.25V14.395H948.246Z" fill="#C0D1F9" fill-opacity="0.13"/>
<path fill-rule="evenodd" clip-rule="evenodd" d="M1090.25 15.395H1020.25V85.395H1090.25V15.395ZM1019.25 14.395V86.395H1091.25V14.395H1019.25Z" fill="#C0D1F9" fill-opacity="0.13"/>
<path fill-rule="evenodd" clip-rule="evenodd" d="M1161.25 15.395H1091.25V85.395H1161.25V15.395ZM1090.25 14.395V86.395H1162.25V14.395H1090.25Z" fill="#C0D1F9" fill-opacity="0.13"/>
<path fill-rule="evenodd" clip-rule="evenodd" d="M-187.754 86.395H-257.754V156.395H-187.754V86.395ZM-258.754 85.395V157.395H-186.754V85.395H-258.754Z" fill="#C0D1F9" fill-opacity="0.13"/>
<path fill-rule="evenodd" clip-rule="evenodd" d="M-116.754 86.395H-186.754V156.395H-116.754V86.395ZM-187.754 85.395V157.395H-115.754V85.395H-187.754Z" fill="#C0D1F9" fill-opacity="0.13"/>
<path fill-rule="evenodd" clip-rule="evenodd" d="M-45.7539 86.395H-115.754V156.395H-45.7539V86.395ZM-116.754 85.395V157.395H-44.7539V85.395H-116.754Z" fill="#C0D1F9" fill-opacity="0.13"/>
<path fill-rule="evenodd" clip-rule="evenodd" d="M25.2461 86.395H-44.7539V156.395H25.2461V86.395ZM-45.7539 85.395V157.395H26.2461V85.395H-45.7539Z" fill="#C0D1F9" fill-opacity="0.13"/>
<path fill-rule="evenodd" clip-rule="evenodd" d="M96.2461 86.395H26.2461V156.395H96.2461V86.395ZM25.2461 85.395V157.395H97.2461V85.395H25.2461Z" fill="#C0D1F9" fill-opacity="0.13"/>
<path fill-rule="evenodd" clip-rule="evenodd" d="M167.246 86.395H97.2461V156.395H167.246V86.395ZM96.2461 85.395V157.395H168.246V85.395H96.2461Z" fill="#C0D1F9" fill-opacity="0.13"/>
<path fill-rule="evenodd" clip-rule="evenodd" d="M238.246 86.395H168.246V156.395H238.246V86.395ZM167.246 85.395V157.395H239.246V85.395H167.246Z" fill="#C0D1F9" fill-opacity="0.13"/>
<path fill-rule="evenodd" clip-rule="evenodd" d="M309.246 86.395H239.246V156.395H309.246V86.395ZM238.246 85.395V157.395H310.246V85.395H238.246Z" fill="#C0D1F9" fill-opacity="0.13"/>
<path fill-rule="evenodd" clip-rule="evenodd" d="M380.246 86.395H310.246V156.395H380.246V86.395ZM309.246 85.395V157.395H381.246V85.395H309.246Z" fill="#C0D1F9" fill-opacity="0.13"/>
<path fill-rule="evenodd" clip-rule="evenodd" d="M451.246 86.395H381.246V156.395H451.246V86.395ZM380.246 85.395V157.395H452.246V85.395H380.246Z" fill="#C0D1F9" fill-opacity="0.13"/>
<path fill-rule="evenodd" clip-rule="evenodd" d="M522.246 86.395H452.246V156.395H522.246V86.395ZM451.246 85.395V157.395H523.246V85.395H451.246Z" fill="#C0D1F9" fill-opacity="0.13"/>
<path fill-rule="evenodd" clip-rule="evenodd" d="M593.246 86.395H523.246V156.395H593.246V86.395ZM522.246 85.395V157.395H594.246V85.395H522.246Z" fill="#C0D1F9" fill-opacity="0.13"/>
<path fill-rule="evenodd" clip-rule="evenodd" d="M664.246 86.395H594.246V156.395H664.246V86.395ZM593.246 85.395V157.395H665.246V85.395H593.246Z" fill="#C0D1F9" fill-opacity="0.13"/>
<path fill-rule="evenodd" clip-rule="evenodd" d="M735.246 86.395H665.246V156.395H735.246V86.395ZM664.246 85.395V157.395H736.246V85.395H664.246Z" fill="#C0D1F9" fill-opacity="0.13"/>
<path fill-rule="evenodd" clip-rule="evenodd" d="M806.246 86.395H736.246V156.395H806.246V86.395ZM735.246 85.395V157.395H807.246V85.395H735.246Z" fill="#C0D1F9" fill-opacity="0.13"/>
<path fill-rule="evenodd" clip-rule="evenodd" d="M877.246 86.395H807.246V156.395H877.246V86.395ZM806.246 85.395V157.395H878.246V85.395H806.246Z" fill="#C0D1F9" fill-opacity="0.13"/>
<path fill-rule="evenodd" clip-rule="evenodd" d="M948.246 86.395H878.246V156.395H948.246V86.395ZM877.246 85.395V157.395H949.246V85.395H877.246Z" fill="#C0D1F9" fill-opacity="0.13"/>
<path fill-rule="evenodd" clip-rule="evenodd" d="M1019.25 86.395H949.246V156.395H1019.25V86.395ZM948.246 85.395V157.395H1020.25V85.395H948.246Z" fill="#C0D1F9" fill-opacity="0.13"/>
<path fill-rule="evenodd" clip-rule="evenodd" d="M1090.25 86.395H1020.25V156.395H1090.25V86.395ZM1019.25 85.395V157.395H1091.25V85.395H1019.25Z" fill="#C0D1F9" fill-opacity="0.13"/>
<path fill-rule="evenodd" clip-rule="evenodd" d="M1161.25 86.395H1091.25V156.395H1161.25V86.395ZM1090.25 85.395V157.395H1162.25V85.395H1090.25Z" fill="#C0D1F9" fill-opacity="0.13"/>
<path fill-rule="evenodd" clip-rule="evenodd" d="M-187.754 157.395H-257.754V227.395H-187.754V157.395ZM-258.754 156.395V228.395H-186.754V156.395H-258.754Z" fill="#C0D1F9" fill-opacity="0.13"/>
<path fill-rule="evenodd" clip-rule="evenodd" d="M-116.754 157.395H-186.754V227.395H-116.754V157.395ZM-187.754 156.395V228.395H-115.754V156.395H-187.754Z" fill="#C0D1F9" fill-opacity="0.13"/>
<path fill-rule="evenodd" clip-rule="evenodd" d="M-45.7539 157.395H-115.754V227.395H-45.7539V157.395ZM-116.754 156.395V228.395H-44.7539V156.395H-116.754Z" fill="#C0D1F9" fill-opacity="0.13"/>
<path fill-rule="evenodd" clip-rule="evenodd" d="M25.2461 157.395H-44.7539V227.395H25.2461V157.395ZM-45.7539 156.395V228.395H26.2461V156.395H-45.7539Z" fill="#C0D1F9" fill-opacity="0.13"/>
<path fill-rule="evenodd" clip-rule="evenodd" d="M96.2461 157.395H26.2461V227.395H96.2461V157.395ZM25.2461 156.395V228.395H97.2461V156.395H25.2461Z" fill="#C0D1F9" fill-opacity="0.13"/>
<path fill-rule="evenodd" clip-rule="evenodd" d="M167.246 157.395H97.2461V227.395H167.246V157.395ZM96.2461 156.395V228.395H168.246V156.395H96.2461Z" fill="#C0D1F9" fill-opacity="0.13"/>
<path fill-rule="evenodd" clip-rule="evenodd" d="M238.246 157.395H168.246V227.395H238.246V157.395ZM167.246 156.395V228.395H239.246V156.395H167.246Z" fill="#C0D1F9" fill-opacity="0.13"/>
<path fill-rule="evenodd" clip-rule="evenodd" d="M309.246 157.395H239.246V227.395H309.246V157.395ZM238.246 156.395V228.395H310.246V156.395H238.246Z" fill="#C0D1F9" fill-opacity="0.13"/>
<path fill-rule="evenodd" clip-rule="evenodd" d="M380.246 157.395H310.246V227.395H380.246V157.395ZM309.246 156.395V228.395H381.246V156.395H309.246Z" fill="#C0D1F9" fill-opacity="0.13"/>
<path fill-rule="evenodd" clip-rule="evenodd" d="M451.246 157.395H381.246V227.395H451.246V157.395ZM380.246 156.395V228.395H452.246V156.395H380.246Z" fill="#C0D1F9" fill-opacity="0.13"/>
<path fill-rule="evenodd" clip-rule="evenodd" d="M522.246 157.395H452.246V227.395H522.246V157.395ZM451.246 156.395V228.395H523.246V156.395H451.246Z" fill="#C0D1F9" fill-opacity="0.13"/>
<path fill-rule="evenodd" clip-rule="evenodd" d="M593.246 157.395H523.246V227.395H593.246V157.395ZM522.246 156.395V228.395H594.246V156.395H522.246Z" fill="#C0D1F9" fill-opacity="0.13"/>
<path fill-rule="evenodd" clip-rule="evenodd" d="M664.246 157.395H594.246V227.395H664.246V157.395ZM593.246 156.395V228.395H665.246V156.395H593.246Z" fill="#C0D1F9" fill-opacity="0.13"/>
<path fill-rule="evenodd" clip-rule="evenodd" d="M735.246 157.395H665.246V227.395H735.246V157.395ZM664.246 156.395V228.395H736.246V156.395H664.246Z" fill="#C0D1F9" fill-opacity="0.13"/>
<path fill-rule="evenodd" clip-rule="evenodd" d="M806.246 157.395H736.246V227.395H806.246V157.395ZM735.246 156.395V228.395H807.246V156.395H735.246Z" fill="#C0D1F9" fill-opacity="0.13"/>
<path fill-rule="evenodd" clip-rule="evenodd" d="M877.246 157.395H807.246V227.395H877.246V157.395ZM806.246 156.395V228.395H878.246V156.395H806.246Z" fill="#C0D1F9" fill-opacity="0.13"/>
<path fill-rule="evenodd" clip-rule="evenodd" d="M948.246 157.395H878.246V227.395H948.246V157.395ZM877.246 156.395V228.395H949.246V156.395H877.246Z" fill="#C0D1F9" fill-opacity="0.13"/>
<path fill-rule="evenodd" clip-rule="evenodd" d="M1019.25 157.395H949.246V227.395H1019.25V157.395ZM948.246 156.395V228.395H1020.25V156.395H948.246Z" fill="#C0D1F9" fill-opacity="0.13"/>
<path fill-rule="evenodd" clip-rule="evenodd" d="M1090.25 157.395H1020.25V227.395H1090.25V157.395ZM1019.25 156.395V228.395H1091.25V156.395H1019.25Z" fill="#C0D1F9" fill-opacity="0.13"/>
<path fill-rule="evenodd" clip-rule="evenodd" d="M1161.25 157.395H1091.25V227.395H1161.25V157.395ZM1090.25 156.395V228.395H1162.25V156.395H1090.25Z" fill="#C0D1F9" fill-opacity="0.13"/>
<path fill-rule="evenodd" clip-rule="evenodd" d="M-187.754 228.395H-257.754V298.395H-187.754V228.395ZM-258.754 227.395V299.395H-186.754V227.395H-258.754Z" fill="#C0D1F9" fill-opacity="0.13"/>
<path fill-rule="evenodd" clip-rule="evenodd" d="M-116.754 228.395H-186.754V298.395H-116.754V228.395ZM-187.754 227.395V299.395H-115.754V227.395H-187.754Z" fill="#C0D1F9" fill-opacity="0.13"/>
<path fill-rule="evenodd" clip-rule="evenodd" d="M-45.7539 228.395H-115.754V298.395H-45.7539V228.395ZM-116.754 227.395V299.395H-44.7539V227.395H-116.754Z" fill="#C0D1F9" fill-opacity="0.13"/>
<path fill-rule="evenodd" clip-rule="evenodd" d="M25.2461 228.395H-44.7539V298.395H25.2461V228.395ZM-45.7539 227.395V299.395H26.2461V227.395H-45.7539Z" fill="#C0D1F9" fill-opacity="0.13"/>
<path fill-rule="evenodd" clip-rule="evenodd" d="M96.2461 228.395H26.2461V298.395H96.2461V228.395ZM25.2461 227.395V299.395H97.2461V227.395H25.2461Z" fill="#C0D1F9" fill-opacity="0.13"/>
<path fill-rule="evenodd" clip-rule="evenodd" d="M167.246 228.395H97.2461V298.395H167.246V228.395ZM96.2461 227.395V299.395H168.246V227.395H96.2461Z" fill="#C0D1F9" fill-opacity="0.13"/>
<path fill-rule="evenodd" clip-rule="evenodd" d="M238.246 228.395H168.246V298.395H238.246V228.395ZM167.246 227.395V299.395H239.246V227.395H167.246Z" fill="#C0D1F9" fill-opacity="0.13"/>
<path fill-rule="evenodd" clip-rule="evenodd" d="M309.246 228.395H239.246V298.395H309.246V228.395ZM238.246 227.395V299.395H310.246V227.395H238.246Z" fill="#C0D1F9" fill-opacity="0.13"/>
<path fill-rule="evenodd" clip-rule="evenodd" d="M380.246 228.395H310.246V298.395H380.246V228.395ZM309.246 227.395V299.395H381.246V227.395H309.246Z" fill="#C0D1F9" fill-opacity="0.13"/>
<path fill-rule="evenodd" clip-rule="evenodd" d="M451.246 228.395H381.246V298.395H451.246V228.395ZM380.246 227.395V299.395H452.246V227.395H380.246Z" fill="#C0D1F9" fill-opacity="0.13"/>
<path fill-rule="evenodd" clip-rule="evenodd" d="M522.246 228.395H452.246V298.395H522.246V228.395ZM451.246 227.395V299.395H523.246V227.395H451.246Z" fill="#C0D1F9" fill-opacity="0.13"/>
<path fill-rule="evenodd" clip-rule="evenodd" d="M593.246 228.395H523.246V298.395H593.246V228.395ZM522.246 227.395V299.395H594.246V227.395H522.246Z" fill="#C0D1F9" fill-opacity="0.13"/>
<path fill-rule="evenodd" clip-rule="evenodd" d="M664.246 228.395H594.246V298.395H664.246V228.395ZM593.246 227.395V299.395H665.246V227.395H593.246Z" fill="#C0D1F9" fill-opacity="0.13"/>
<path fill-rule="evenodd" clip-rule="evenodd" d="M735.246 228.395H665.246V298.395H735.246V228.395ZM664.246 227.395V299.395H736.246V227.395H664.246Z" fill="#C0D1F9" fill-opacity="0.13"/>
<path fill-rule="evenodd" clip-rule="evenodd" d="M806.246 228.395H736.246V298.395H806.246V228.395ZM735.246 227.395V299.395H807.246V227.395H735.246Z" fill="#C0D1F9" fill-opacity="0.13"/>
<path fill-rule="evenodd" clip-rule="evenodd" d="M877.246 228.395H807.246V298.395H877.246V228.395ZM806.246 227.395V299.395H878.246V227.395H806.246Z" fill="#C0D1F9" fill-opacity="0.13"/>
<path fill-rule="evenodd" clip-rule="evenodd" d="M948.246 228.395H878.246V298.395H948.246V228.395ZM877.246 227.395V299.395H949.246V227.395H877.246Z" fill="#C0D1F9" fill-opacity="0.13"/>
<path fill-rule="evenodd" clip-rule="evenodd" d="M1019.25 228.395H949.246V298.395H1019.25V228.395ZM948.246 227.395V299.395H1020.25V227.395H948.246Z" fill="#C0D1F9" fill-opacity="0.13"/>
<path fill-rule="evenodd" clip-rule="evenodd" d="M1090.25 228.395H1020.25V298.395H1090.25V228.395ZM1019.25 227.395V299.395H1091.25V227.395H1019.25Z" fill="#C0D1F9" fill-opacity="0.13"/>
<path fill-rule="evenodd" clip-rule="evenodd" d="M1161.25 228.395H1091.25V298.395H1161.25V228.395ZM1090.25 227.395V299.395H1162.25V227.395H1090.25Z" fill="#C0D1F9" fill-opacity="0.13"/>
<path fill-rule="evenodd" clip-rule="evenodd" d="M-187.754 299.395H-257.754V369.395H-187.754V299.395ZM-258.754 298.395V370.395H-186.754V298.395H-258.754Z" fill="#C0D1F9" fill-opacity="0.13"/>
<path fill-rule="evenodd" clip-rule="evenodd" d="M-116.754 299.395H-186.754V369.395H-116.754V299.395ZM-187.754 298.395V370.395H-115.754V298.395H-187.754Z" fill="#C0D1F9" fill-opacity="0.13"/>
<path fill-rule="evenodd" clip-rule="evenodd" d="M-45.7539 299.395H-115.754V369.395H-45.7539V299.395ZM-116.754 298.395V370.395H-44.7539V298.395H-116.754Z" fill="#C0D1F9" fill-opacity="0.13"/>
<path fill-rule="evenodd" clip-rule="evenodd" d="M25.2461 299.395H-44.7539V369.395H25.2461V299.395ZM-45.7539 298.395V370.395H26.2461V298.395H-45.7539Z" fill="#C0D1F9" fill-opacity="0.13"/>
<path fill-rule="evenodd" clip-rule="evenodd" d="M96.2461 299.395H26.2461V369.395H96.2461V299.395ZM25.2461 298.395V370.395H97.2461V298.395H25.2461Z" fill="#C0D1F9" fill-opacity="0.13"/>
<path fill-rule="evenodd" clip-rule="evenodd" d="M167.246 299.395H97.2461V369.395H167.246V299.395ZM96.2461 298.395V370.395H168.246V298.395H96.2461Z" fill="#C0D1F9" fill-opacity="0.13"/>
<path fill-rule="evenodd" clip-rule="evenodd" d="M238.246 299.395H168.246V369.395H238.246V299.395ZM167.246 298.395V370.395H239.246V298.395H167.246Z" fill="#C0D1F9" fill-opacity="0.13"/>
<path fill-rule="evenodd" clip-rule="evenodd" d="M309.246 299.395H239.246V369.395H309.246V299.395ZM238.246 298.395V370.395H310.246V298.395H238.246Z" fill="#C0D1F9" fill-opacity="0.13"/>
<path fill-rule="evenodd" clip-rule="evenodd" d="M380.246 299.395H310.246V369.395H380.246V299.395ZM309.246 298.395V370.395H381.246V298.395H309.246Z" fill="#C0D1F9" fill-opacity="0.13"/>
<path fill-rule="evenodd" clip-rule="evenodd" d="M451.246 299.395H381.246V369.395H451.246V299.395ZM380.246 298.395V370.395H452.246V298.395H380.246Z" fill="#C0D1F9" fill-opacity="0.13"/>
<path fill-rule="evenodd" clip-rule="evenodd" d="M522.246 299.395H452.246V369.395H522.246V299.395ZM451.246 298.395V370.395H523.246V298.395H451.246Z" fill="#C0D1F9" fill-opacity="0.13"/>
<path fill-rule="evenodd" clip-rule="evenodd" d="M593.246 299.395H523.246V369.395H593.246V299.395ZM522.246 298.395V370.395H594.246V298.395H522.246Z" fill="#C0D1F9" fill-opacity="0.13"/>
<path fill-rule="evenodd" clip-rule="evenodd" d="M664.246 299.395H594.246V369.395H664.246V299.395ZM593.246 298.395V370.395H665.246V298.395H593.246Z" fill="#C0D1F9" fill-opacity="0.13"/>
<path fill-rule="evenodd" clip-rule="evenodd" d="M735.246 299.395H665.246V369.395H735.246V299.395ZM664.246 298.395V370.395H736.246V298.395H664.246Z" fill="#C0D1F9" fill-opacity="0.13"/>
<path fill-rule="evenodd" clip-rule="evenodd" d="M806.246 299.395H736.246V369.395H806.246V299.395ZM735.246 298.395V370.395H807.246V298.395H735.246Z" fill="#C0D1F9" fill-opacity="0.13"/>
<path fill-rule="evenodd" clip-rule="evenodd" d="M877.246 299.395H807.246V369.395H877.246V299.395ZM806.246 298.395V370.395H878.246V298.395H806.246Z" fill="#C0D1F9" fill-opacity="0.13"/>
<path fill-rule="evenodd" clip-rule="evenodd" d="M948.246 299.395H878.246V369.395H948.246V299.395ZM877.246 298.395V370.395H949.246V298.395H877.246Z" fill="#C0D1F9" fill-opacity="0.13"/>
<path fill-rule="evenodd" clip-rule="evenodd" d="M1019.25 299.395H949.246V369.395H1019.25V299.395ZM948.246 298.395V370.395H1020.25V298.395H948.246Z" fill="#C0D1F9" fill-opacity="0.13"/>
<path fill-rule="evenodd" clip-rule="evenodd" d="M1090.25 299.395H1020.25V369.395H1090.25V299.395ZM1019.25 298.395V370.395H1091.25V298.395H1019.25Z" fill="#C0D1F9" fill-opacity="0.13"/>
<path fill-rule="evenodd" clip-rule="evenodd" d="M1161.25 299.395H1091.25V369.395H1161.25V299.395ZM1090.25 298.395V370.395H1162.25V298.395H1090.25Z" fill="#C0D1F9" fill-opacity="0.13"/>
<path fill-rule="evenodd" clip-rule="evenodd" d="M-187.754 370.395H-257.754V440.395H-187.754V370.395ZM-258.754 369.395V441.395H-186.754V369.395H-258.754Z" fill="#C0D1F9" fill-opacity="0.13"/>
<path fill-rule="evenodd" clip-rule="evenodd" d="M-116.754 370.395H-186.754V440.395H-116.754V370.395ZM-187.754 369.395V441.395H-115.754V369.395H-187.754Z" fill="#C0D1F9" fill-opacity="0.13"/>
<path fill-rule="evenodd" clip-rule="evenodd" d="M-45.7539 370.395H-115.754V440.395H-45.7539V370.395ZM-116.754 369.395V441.395H-44.7539V369.395H-116.754Z" fill="#C0D1F9" fill-opacity="0.13"/>
<path fill-rule="evenodd" clip-rule="evenodd" d="M25.2461 370.395H-44.7539V440.395H25.2461V370.395ZM-45.7539 369.395V441.395H26.2461V369.395H-45.7539Z" fill="#C0D1F9" fill-opacity="0.13"/>
<path fill-rule="evenodd" clip-rule="evenodd" d="M96.2461 370.395H26.2461V440.395H96.2461V370.395ZM25.2461 369.395V441.395H97.2461V369.395H25.2461Z" fill="#C0D1F9" fill-opacity="0.13"/>
<path fill-rule="evenodd" clip-rule="evenodd" d="M167.246 370.395H97.2461V440.395H167.246V370.395ZM96.2461 369.395V441.395H168.246V369.395H96.2461Z" fill="#C0D1F9" fill-opacity="0.13"/>
<path fill-rule="evenodd" clip-rule="evenodd" d="M238.246 370.395H168.246V440.395H238.246V370.395ZM167.246 369.395V441.395H239.246V369.395H167.246Z" fill="#C0D1F9" fill-opacity="0.13"/>
<path fill-rule="evenodd" clip-rule="evenodd" d="M309.246 370.395H239.246V440.395H309.246V370.395ZM238.246 369.395V441.395H310.246V369.395H238.246Z" fill="#C0D1F9" fill-opacity="0.13"/>
<path fill-rule="evenodd" clip-rule="evenodd" d="M380.246 370.395H310.246V440.395H380.246V370.395ZM309.246 369.395V441.395H381.246V369.395H309.246Z" fill="#C0D1F9" fill-opacity="0.13"/>
<path fill-rule="evenodd" clip-rule="evenodd" d="M451.246 370.395H381.246V440.395H451.246V370.395ZM380.246 369.395V441.395H452.246V369.395H380.246Z" fill="#C0D1F9" fill-opacity="0.13"/>
<path fill-rule="evenodd" clip-rule="evenodd" d="M522.246 370.395H452.246V440.395H522.246V370.395ZM451.246 369.395V441.395H523.246V369.395H451.246Z" fill="#C0D1F9" fill-opacity="0.13"/>
<path fill-rule="evenodd" clip-rule="evenodd" d="M593.246 370.395H523.246V440.395H593.246V370.395ZM522.246 369.395V441.395H594.246V369.395H522.246Z" fill="#C0D1F9" fill-opacity="0.13"/>
<path fill-rule="evenodd" clip-rule="evenodd" d="M664.246 370.395H594.246V440.395H664.246V370.395ZM593.246 369.395V441.395H665.246V369.395H593.246Z" fill="#C0D1F9" fill-opacity="0.13"/>
<path fill-rule="evenodd" clip-rule="evenodd" d="M735.246 370.395H665.246V440.395H735.246V370.395ZM664.246 369.395V441.395H736.246V369.395H664.246Z" fill="#C0D1F9" fill-opacity="0.13"/>
<path fill-rule="evenodd" clip-rule="evenodd" d="M806.246 370.395H736.246V440.395H806.246V370.395ZM735.246 369.395V441.395H807.246V369.395H735.246Z" fill="#C0D1F9" fill-opacity="0.13"/>
<path fill-rule="evenodd" clip-rule="evenodd" d="M877.246 370.395H807.246V440.395H877.246V370.395ZM806.246 369.395V441.395H878.246V369.395H806.246Z" fill="#C0D1F9" fill-opacity="0.13"/>
<path fill-rule="evenodd" clip-rule="evenodd" d="M948.246 370.395H878.246V440.395H948.246V370.395ZM877.246 369.395V441.395H949.246V369.395H877.246Z" fill="#C0D1F9" fill-opacity="0.13"/>
<path fill-rule="evenodd" clip-rule="evenodd" d="M1019.25 370.395H949.246V440.395H1019.25V370.395ZM948.246 369.395V441.395H1020.25V369.395H948.246Z" fill="#C0D1F9" fill-opacity="0.13"/>
<path fill-rule="evenodd" clip-rule="evenodd" d="M1090.25 370.395H1020.25V440.395H1090.25V370.395ZM1019.25 369.395V441.395H1091.25V369.395H1019.25Z" fill="#C0D1F9" fill-opacity="0.13"/>
<path fill-rule="evenodd" clip-rule="evenodd" d="M1161.25 370.395H1091.25V440.395H1161.25V370.395ZM1090.25 369.395V441.395H1162.25V369.395H1090.25Z" fill="#C0D1F9" fill-opacity="0.13"/>
<path fill-rule="evenodd" clip-rule="evenodd" d="M-187.754 441.395H-257.754V511.395H-187.754V441.395ZM-258.754 440.395V512.395H-186.754V440.395H-258.754Z" fill="#C0D1F9" fill-opacity="0.13"/>
<path fill-rule="evenodd" clip-rule="evenodd" d="M-116.754 441.395H-186.754V511.395H-116.754V441.395ZM-187.754 440.395V512.395H-115.754V440.395H-187.754Z" fill="#C0D1F9" fill-opacity="0.13"/>
<path fill-rule="evenodd" clip-rule="evenodd" d="M-45.7539 441.395H-115.754V511.395H-45.7539V441.395ZM-116.754 440.395V512.395H-44.7539V440.395H-116.754Z" fill="#C0D1F9" fill-opacity="0.13"/>
<path fill-rule="evenodd" clip-rule="evenodd" d="M25.2461 441.395H-44.7539V511.395H25.2461V441.395ZM-45.7539 440.395V512.395H26.2461V440.395H-45.7539Z" fill="#C0D1F9" fill-opacity="0.13"/>
<path fill-rule="evenodd" clip-rule="evenodd" d="M96.2461 441.395H26.2461V511.395H96.2461V441.395ZM25.2461 440.395V512.395H97.2461V440.395H25.2461Z" fill="#C0D1F9" fill-opacity="0.13"/>
<path fill-rule="evenodd" clip-rule="evenodd" d="M167.246 441.395H97.2461V511.395H167.246V441.395ZM96.2461 440.395V512.395H168.246V440.395H96.2461Z" fill="#C0D1F9" fill-opacity="0.13"/>
<path fill-rule="evenodd" clip-rule="evenodd" d="M238.246 441.395H168.246V511.395H238.246V441.395ZM167.246 440.395V512.395H239.246V440.395H167.246Z" fill="#C0D1F9" fill-opacity="0.13"/>
<path fill-rule="evenodd" clip-rule="evenodd" d="M309.246 441.395H239.246V511.395H309.246V441.395ZM238.246 440.395V512.395H310.246V440.395H238.246Z" fill="#C0D1F9" fill-opacity="0.13"/>
<path fill-rule="evenodd" clip-rule="evenodd" d="M380.246 441.395H310.246V511.395H380.246V441.395ZM309.246 440.395V512.395H381.246V440.395H309.246Z" fill="#C0D1F9" fill-opacity="0.13"/>
<path fill-rule="evenodd" clip-rule="evenodd" d="M451.246 441.395H381.246V511.395H451.246V441.395ZM380.246 440.395V512.395H452.246V440.395H380.246Z" fill="#C0D1F9" fill-opacity="0.13"/>
<path fill-rule="evenodd" clip-rule="evenodd" d="M522.246 441.395H452.246V511.395H522.246V441.395ZM451.246 440.395V512.395H523.246V440.395H451.246Z" fill="#C0D1F9" fill-opacity="0.13"/>
<path fill-rule="evenodd" clip-rule="evenodd" d="M593.246 441.395H523.246V511.395H593.246V441.395ZM522.246 440.395V512.395H594.246V440.395H522.246Z" fill="#C0D1F9" fill-opacity="0.13"/>
<path fill-rule="evenodd" clip-rule="evenodd" d="M664.246 441.395H594.246V511.395H664.246V441.395ZM593.246 440.395V512.395H665.246V440.395H593.246Z" fill="#C0D1F9" fill-opacity="0.13"/>
<path fill-rule="evenodd" clip-rule="evenodd" d="M735.246 441.395H665.246V511.395H735.246V441.395ZM664.246 440.395V512.395H736.246V440.395H664.246Z" fill="#C0D1F9" fill-opacity="0.13"/>
<path fill-rule="evenodd" clip-rule="evenodd" d="M806.246 441.395H736.246V511.395H806.246V441.395ZM735.246 440.395V512.395H807.246V440.395H735.246Z" fill="#C0D1F9" fill-opacity="0.13"/>
<path fill-rule="evenodd" clip-rule="evenodd" d="M877.246 441.395H807.246V511.395H877.246V441.395ZM806.246 440.395V512.395H878.246V440.395H806.246Z" fill="#C0D1F9" fill-opacity="0.13"/>
<path fill-rule="evenodd" clip-rule="evenodd" d="M948.246 441.395H878.246V511.395H948.246V441.395ZM877.246 440.395V512.395H949.246V440.395H877.246Z" fill="#C0D1F9" fill-opacity="0.13"/>
<path fill-rule="evenodd" clip-rule="evenodd" d="M1019.25 441.395H949.246V511.395H1019.25V441.395ZM948.246 440.395V512.395H1020.25V440.395H948.246Z" fill="#C0D1F9" fill-opacity="0.13"/>
<path fill-rule="evenodd" clip-rule="evenodd" d="M1090.25 441.395H1020.25V511.395H1090.25V441.395ZM1019.25 440.395V512.395H1091.25V440.395H1019.25Z" fill="#C0D1F9" fill-opacity="0.13"/>
<path fill-rule="evenodd" clip-rule="evenodd" d="M1161.25 441.395H1091.25V511.395H1161.25V441.395ZM1090.25 440.395V512.395H1162.25V440.395H1090.25Z" fill="#C0D1F9" fill-opacity="0.13"/>
<path fill-rule="evenodd" clip-rule="evenodd" d="M-187.754 512.395H-257.754V582.395H-187.754V512.395ZM-258.754 511.395V583.395H-186.754V511.395H-258.754Z" fill="#C0D1F9" fill-opacity="0.13"/>
<path fill-rule="evenodd" clip-rule="evenodd" d="M-116.754 512.395H-186.754V582.395H-116.754V512.395ZM-187.754 511.395V583.395H-115.754V511.395H-187.754Z" fill="#C0D1F9" fill-opacity="0.13"/>
<path fill-rule="evenodd" clip-rule="evenodd" d="M-45.7539 512.395H-115.754V582.395H-45.7539V512.395ZM-116.754 511.395V583.395H-44.7539V511.395H-116.754Z" fill="#C0D1F9" fill-opacity="0.13"/>
<path fill-rule="evenodd" clip-rule="evenodd" d="M25.2461 512.395H-44.7539V582.395H25.2461V512.395ZM-45.7539 511.395V583.395H26.2461V511.395H-45.7539Z" fill="#C0D1F9" fill-opacity="0.13"/>
<path fill-rule="evenodd" clip-rule="evenodd" d="M96.2461 512.395H26.2461V582.395H96.2461V512.395ZM25.2461 511.395V583.395H97.2461V511.395H25.2461Z" fill="#C0D1F9" fill-opacity="0.13"/>
<path fill-rule="evenodd" clip-rule="evenodd" d="M167.246 512.395H97.2461V582.395H167.246V512.395ZM96.2461 511.395V583.395H168.246V511.395H96.2461Z" fill="#C0D1F9" fill-opacity="0.13"/>
<path fill-rule="evenodd" clip-rule="evenodd" d="M238.246 512.395H168.246V582.395H238.246V512.395ZM167.246 511.395V583.395H239.246V511.395H167.246Z" fill="#C0D1F9" fill-opacity="0.13"/>
<path fill-rule="evenodd" clip-rule="evenodd" d="M309.246 512.395H239.246V582.395H309.246V512.395ZM238.246 511.395V583.395H310.246V511.395H238.246Z" fill="#C0D1F9" fill-opacity="0.13"/>
<path fill-rule="evenodd" clip-rule="evenodd" d="M380.246 512.395H310.246V582.395H380.246V512.395ZM309.246 511.395V583.395H381.246V511.395H309.246Z" fill="#C0D1F9" fill-opacity="0.13"/>
<path fill-rule="evenodd" clip-rule="evenodd" d="M451.246 512.395H381.246V582.395H451.246V512.395ZM380.246 511.395V583.395H452.246V511.395H380.246Z" fill="#C0D1F9" fill-opacity="0.13"/>
<path fill-rule="evenodd" clip-rule="evenodd" d="M522.246 512.395H452.246V582.395H522.246V512.395ZM451.246 511.395V583.395H523.246V511.395H451.246Z" fill="#C0D1F9" fill-opacity="0.13"/>
<path fill-rule="evenodd" clip-rule="evenodd" d="M593.246 512.395H523.246V582.395H593.246V512.395ZM522.246 511.395V583.395H594.246V511.395H522.246Z" fill="#C0D1F9" fill-opacity="0.13"/>
<path fill-rule="evenodd" clip-rule="evenodd" d="M664.246 512.395H594.246V582.395H664.246V512.395ZM593.246 511.395V583.395H665.246V511.395H593.246Z" fill="#C0D1F9" fill-opacity="0.13"/>
<path fill-rule="evenodd" clip-rule="evenodd" d="M735.246 512.395H665.246V582.395H735.246V512.395ZM664.246 511.395V583.395H736.246V511.395H664.246Z" fill="#C0D1F9" fill-opacity="0.13"/>
<path fill-rule="evenodd" clip-rule="evenodd" d="M806.246 512.395H736.246V582.395H806.246V512.395ZM735.246 511.395V583.395H807.246V511.395H735.246Z" fill="#C0D1F9" fill-opacity="0.13"/>
<path fill-rule="evenodd" clip-rule="evenodd" d="M877.246 512.395H807.246V582.395H877.246V512.395ZM806.246 511.395V583.395H878.246V511.395H806.246Z" fill="#C0D1F9" fill-opacity="0.13"/>
<path fill-rule="evenodd" clip-rule="evenodd" d="M948.246 512.395H878.246V582.395H948.246V512.395ZM877.246 511.395V583.395H949.246V511.395H877.246Z" fill="#C0D1F9" fill-opacity="0.13"/>
<path fill-rule="evenodd" clip-rule="evenodd" d="M1019.25 512.395H949.246V582.395H1019.25V512.395ZM948.246 511.395V583.395H1020.25V511.395H948.246Z" fill="#C0D1F9" fill-opacity="0.13"/>
<path fill-rule="evenodd" clip-rule="evenodd" d="M1090.25 512.395H1020.25V582.395H1090.25V512.395ZM1019.25 511.395V583.395H1091.25V511.395H1019.25Z" fill="#C0D1F9" fill-opacity="0.13"/>
<path fill-rule="evenodd" clip-rule="evenodd" d="M1161.25 512.395H1091.25V582.395H1161.25V512.395ZM1090.25 511.395V583.395H1162.25V511.395H1090.25Z" fill="#C0D1F9" fill-opacity="0.13"/>
<path fill-rule="evenodd" clip-rule="evenodd" d="M-187.754 583.395H-257.754V653.395H-187.754V583.395ZM-258.754 582.395V654.395H-186.754V582.395H-258.754Z" fill="#C0D1F9" fill-opacity="0.13"/>
<path fill-rule="evenodd" clip-rule="evenodd" d="M-116.754 583.395H-186.754V653.395H-116.754V583.395ZM-187.754 582.395V654.395H-115.754V582.395H-187.754Z" fill="#C0D1F9" fill-opacity="0.13"/>
<path fill-rule="evenodd" clip-rule="evenodd" d="M-45.7539 583.395H-115.754V653.395H-45.7539V583.395ZM-116.754 582.395V654.395H-44.7539V582.395H-116.754Z" fill="#C0D1F9" fill-opacity="0.13"/>
<path fill-rule="evenodd" clip-rule="evenodd" d="M25.2461 583.395H-44.7539V653.395H25.2461V583.395ZM-45.7539 582.395V654.395H26.2461V582.395H-45.7539Z" fill="#C0D1F9" fill-opacity="0.13"/>
<path fill-rule="evenodd" clip-rule="evenodd" d="M96.2461 583.395H26.2461V653.395H96.2461V583.395ZM25.2461 582.395V654.395H97.2461V582.395H25.2461Z" fill="#C0D1F9" fill-opacity="0.13"/>
<path fill-rule="evenodd" clip-rule="evenodd" d="M167.246 583.395H97.2461V653.395H167.246V583.395ZM96.2461 582.395V654.395H168.246V582.395H96.2461Z" fill="#C0D1F9" fill-opacity="0.13"/>
<path fill-rule="evenodd" clip-rule="evenodd" d="M238.246 583.395H168.246V653.395H238.246V583.395ZM167.246 582.395V654.395H239.246V582.395H167.246Z" fill="#C0D1F9" fill-opacity="0.13"/>
<path fill-rule="evenodd" clip-rule="evenodd" d="M309.246 583.395H239.246V653.395H309.246V583.395ZM238.246 582.395V654.395H310.246V582.395H238.246Z" fill="#C0D1F9" fill-opacity="0.13"/>
<path fill-rule="evenodd" clip-rule="evenodd" d="M380.246 583.395H310.246V653.395H380.246V583.395ZM309.246 582.395V654.395H381.246V582.395H309.246Z" fill="#C0D1F9" fill-opacity="0.13"/>
<path fill-rule="evenodd" clip-rule="evenodd" d="M451.246 583.395H381.246V653.395H451.246V583.395ZM380.246 582.395V654.395H452.246V582.395H380.246Z" fill="#C0D1F9" fill-opacity="0.13"/>
<path fill-rule="evenodd" clip-rule="evenodd" d="M522.246 583.395H452.246V653.395H522.246V583.395ZM451.246 582.395V654.395H523.246V582.395H451.246Z" fill="#C0D1F9" fill-opacity="0.13"/>
<path fill-rule="evenodd" clip-rule="evenodd" d="M593.246 583.395H523.246V653.395H593.246V583.395ZM522.246 582.395V654.395H594.246V582.395H522.246Z" fill="#C0D1F9" fill-opacity="0.13"/>
<path fill-rule="evenodd" clip-rule="evenodd" d="M664.246 583.395H594.246V653.395H664.246V583.395ZM593.246 582.395V654.395H665.246V582.395H593.246Z" fill="#C0D1F9" fill-opacity="0.13"/>
<path fill-rule="evenodd" clip-rule="evenodd" d="M735.246 583.395H665.246V653.395H735.246V583.395ZM664.246 582.395V654.395H736.246V582.395H664.246Z" fill="#C0D1F9" fill-opacity="0.13"/>
<path fill-rule="evenodd" clip-rule="evenodd" d="M806.246 583.395H736.246V653.395H806.246V583.395ZM735.246 582.395V654.395H807.246V582.395H735.246Z" fill="#C0D1F9" fill-opacity="0.13"/>
<path fill-rule="evenodd" clip-rule="evenodd" d="M877.246 583.395H807.246V653.395H877.246V583.395ZM806.246 582.395V654.395H878.246V582.395H806.246Z" fill="#C0D1F9" fill-opacity="0.13"/>
<path fill-rule="evenodd" clip-rule="evenodd" d="M948.246 583.395H878.246V653.395H948.246V583.395ZM877.246 582.395V654.395H949.246V582.395H877.246Z" fill="#C0D1F9" fill-opacity="0.13"/>
<path fill-rule="evenodd" clip-rule="evenodd" d="M1019.25 583.395H949.246V653.395H1019.25V583.395ZM948.246 582.395V654.395H1020.25V582.395H948.246Z" fill="#C0D1F9" fill-opacity="0.13"/>
<path fill-rule="evenodd" clip-rule="evenodd" d="M1090.25 583.395H1020.25V653.395H1090.25V583.395ZM1019.25 582.395V654.395H1091.25V582.395H1019.25Z" fill="#C0D1F9" fill-opacity="0.13"/>
<path fill-rule="evenodd" clip-rule="evenodd" d="M1161.25 583.395H1091.25V653.395H1161.25V583.395ZM1090.25 582.395V654.395H1162.25V582.395H1090.25Z" fill="#C0D1F9" fill-opacity="0.13"/>
<line x1="460.246" y1="298.895" x2="444.246" y2="298.895" stroke="#48B5FF"/>
<line x1="451.746" y1="306.395" x2="451.746" y2="290.395" stroke="#48B5FF"/>
<line x1="460.246" y1="85.895" x2="444.246" y2="85.895" stroke="#48B5FF"/>
<line x1="451.746" y1="93.395" x2="451.746" y2="77.395" stroke="#48B5FF"/>
<line x1="460.246" y1="440.895" x2="444.246" y2="440.895" stroke="#48B5FF"/>
<line x1="451.746" y1="448.395" x2="451.746" y2="432.395" stroke="#48B5FF"/>
<line x1="460.246" y1="582.895" x2="444.246" y2="582.895" stroke="#48B5FF"/>
<line x1="451.746" y1="590.395" x2="451.746" y2="574.395" stroke="#48B5FF"/>
<line x1="247.246" y1="298.895" x2="231.246" y2="298.895" stroke="#48B5FF"/>
<line x1="238.746" y1="306.395" x2="238.746" y2="290.395" stroke="#48B5FF"/>
<line x1="247.246" y1="85.895" x2="231.246" y2="85.895" stroke="#48B5FF"/>
<line x1="238.746" y1="93.395" x2="238.746" y2="77.395" stroke="#48B5FF"/>
<line x1="247.246" y1="440.895" x2="231.246" y2="440.895" stroke="#48B5FF"/>
<line x1="238.746" y1="448.395" x2="238.746" y2="432.395" stroke="#48B5FF"/>
<line x1="247.246" y1="582.895" x2="231.246" y2="582.895" stroke="#48B5FF"/>
<line x1="238.746" y1="590.395" x2="238.746" y2="574.395" stroke="#48B5FF"/>
<line x1="34.2461" y1="225.895" x2="18.2461" y2="225.895" stroke="#48B5FF"/>
<line x1="25.7461" y1="233.395" x2="25.7461" y2="217.395" stroke="#48B5FF"/>
<line x1="34.2461" y1="85.895" x2="18.2461" y2="85.895" stroke="#48B5FF"/>
<line x1="25.7461" y1="93.395" x2="25.7461" y2="77.395" stroke="#48B5FF"/>
<line x1="34.2461" y1="368.895" x2="18.2461" y2="368.895" stroke="#48B5FF"/>
<line x1="25.7461" y1="376.395" x2="25.7461" y2="360.395" stroke="#48B5FF"/>
<line x1="34.2461" y1="510.895" x2="18.2461" y2="510.895" stroke="#48B5FF"/>
<line x1="25.7461" y1="518.395" x2="25.7461" y2="502.395" stroke="#48B5FF"/>
<line x1="673.246" y1="298.895" x2="657.246" y2="298.895" stroke="#48B5FF"/>
<line x1="664.746" y1="306.395" x2="664.746" y2="290.395" stroke="#48B5FF"/>
<line x1="673.246" y1="85.895" x2="657.246" y2="85.895" stroke="#48B5FF"/>
<line x1="664.746" y1="93.395" x2="664.746" y2="77.395" stroke="#48B5FF"/>
<line x1="673.246" y1="440.895" x2="657.246" y2="440.895" stroke="#48B5FF"/>
<line x1="664.746" y1="448.395" x2="664.746" y2="432.395" stroke="#48B5FF"/>
<line x1="673.246" y1="582.895" x2="657.246" y2="582.895" stroke="#48B5FF"/>
<line x1="664.746" y1="590.395" x2="664.746" y2="574.395" stroke="#48B5FF"/>
<line x1="886.246" y1="227.895" x2="870.246" y2="227.895" stroke="#48B5FF"/>
<line x1="877.746" y1="235.395" x2="877.746" y2="219.395" stroke="#48B5FF"/>
<line x1="886.246" y1="85.895" x2="870.246" y2="85.895" stroke="#48B5FF"/>
<line x1="877.746" y1="93.395" x2="877.746" y2="77.395" stroke="#48B5FF"/>
<line x1="886.246" y1="369.895" x2="870.246" y2="369.895" stroke="#48B5FF"/>
<line x1="877.746" y1="377.395" x2="877.746" y2="361.395" stroke="#48B5FF"/>
<line x1="886.246" y1="511.895" x2="870.246" y2="511.895" stroke="#48B5FF"/>
<line x1="877.746" y1="519.395" x2="877.746" y2="503.395" stroke="#48B5FF"/>
</svg>
