<svg width="40" height="40" viewBox="0 0 40 40" fill="none" xmlns="http://www.w3.org/2000/svg">
<rect x="10.1667" y="10.5" width="20" height="20" rx="10" fill="#010C1E"/>
<path fill-rule="evenodd" clip-rule="evenodd" d="M6.0521 6.60875C3.61133 9.04952 3.61133 12.9779 3.61133 20.8346C3.61133 28.6914 3.61133 32.6197 6.0521 35.0605C8.49288 37.5013 12.4213 37.5013 20.278 37.5013C28.1347 37.5013 32.0631 37.5013 34.5039 35.0605C36.9447 32.6197 36.9447 28.6914 36.9447 20.8346C36.9447 12.9779 36.9447 9.04952 34.5039 6.60875C32.0631 4.16797 28.1347 4.16797 20.278 4.16797C12.4213 4.16797 8.49288 4.16797 6.0521 6.60875ZM9.37896 19.3069C10.0002 13.8344 14.6514 9.58464 20.294 9.58464C23.5973 9.58464 26.5616 11.0425 28.5738 13.3455C29.028 13.8654 28.9748 14.6551 28.4549 15.1093C27.935 15.5635 27.1454 15.5103 26.6911 14.9904C25.1339 13.2081 22.8463 12.0846 20.294 12.0846C16.0316 12.0846 12.5054 15.2216 11.9002 19.3069H12.5056C13.0113 19.3069 13.4672 19.6116 13.6606 20.0789C13.854 20.5462 13.7467 21.084 13.3888 21.4413L11.4417 23.3858C10.9537 23.8731 10.1632 23.8731 9.67519 23.3858L7.72809 21.4413C7.37023 21.084 7.26298 20.5462 7.45635 20.0789C7.64973 19.6116 8.10563 19.3069 8.61136 19.3069H9.37896ZM29.1144 18.2835C29.6024 17.7961 30.393 17.7961 30.881 18.2835L32.8281 20.2279C33.1859 20.5853 33.2932 21.1231 33.0998 21.5904C32.9064 22.0577 32.4505 22.3624 31.9448 22.3624H31.1772C30.5559 27.8348 25.9047 32.0846 20.2622 32.0846C16.9588 32.0846 13.9946 30.6268 11.9824 28.3237C11.5282 27.8039 11.5814 27.0142 12.1013 26.56C12.6211 26.1058 13.4108 26.159 13.865 26.6789C15.4222 28.4611 17.7099 29.5846 20.2622 29.5846C24.5246 29.5846 28.0508 26.4477 28.656 22.3624H28.0506C27.5449 22.3624 27.089 22.0577 26.8956 21.5904C26.7022 21.1231 26.8095 20.5853 27.1673 20.2279L29.1144 18.2835Z" fill="#E1EAFD"/>
</svg>
