<svg width="40" height="40" viewBox="0 0 40 40" fill="none" xmlns="http://www.w3.org/2000/svg">
<path d="M4.58325 10.2765C4.58325 9.50943 5.15889 8.88761 5.86897 8.88761L10.3094 8.88687C11.1916 8.86272 11.9699 8.25672 12.2702 7.36022C12.278 7.33665 12.2871 7.30757 12.3197 7.20208L12.511 6.58192C12.6281 6.20167 12.7301 5.87041 12.8728 5.57431C13.4367 4.40452 14.48 3.5922 15.6857 3.38423C15.9909 3.33159 16.3141 3.33181 16.685 3.33207H22.4818C22.8527 3.33181 23.1759 3.33159 23.4811 3.38423C24.6867 3.5922 25.7301 4.40452 26.294 5.57431C26.4367 5.87041 26.5387 6.20167 26.6558 6.58192L26.8471 7.20208C26.8797 7.30757 26.8888 7.33665 26.8966 7.36022C27.1968 8.25672 28.1296 8.86346 29.0118 8.88761H33.2975C34.0076 8.88761 34.5833 9.50943 34.5833 10.2765C34.5833 11.0435 34.0076 11.6654 33.2975 11.6654H5.86897C5.15889 11.6654 4.58325 11.0435 4.58325 10.2765Z" fill="#E1EAFD"/>
<path d="M19.3445 36.6651H20.6561C25.1686 36.6651 27.4248 36.6651 28.8918 35.2264C30.3588 33.7877 30.5089 31.4278 30.809 26.708L31.2415 19.9071C31.4044 17.3462 31.4858 16.0657 30.7499 15.2543C30.014 14.4429 28.7712 14.4429 26.2856 14.4429H13.715C11.2294 14.4429 9.98664 14.4429 9.25071 15.2543C8.51477 16.0657 8.59621 17.3462 8.75907 19.9071L9.19159 26.708C9.49175 31.4278 9.64184 33.7877 11.1088 35.2264C12.5758 36.6651 14.832 36.6651 19.3445 36.6651Z" fill="#E1EAFD"/>
</svg>
