<svg width="40" height="40" viewBox="0 0 40 40" fill="none" xmlns="http://www.w3.org/2000/svg">
<path d="M20.1396 5.83203C16.8415 5.83203 14.0115 7.84922 12.8218 10.722C12.5576 11.3598 11.8265 11.6628 11.1886 11.3986C10.5508 11.1345 10.2479 10.4033 10.512 9.76545C12.0752 5.99103 15.7954 3.33203 20.1396 3.33203C24.4839 3.33203 28.2041 5.99103 29.7672 9.76545C30.0314 10.4033 29.7285 11.1345 29.0906 11.3986C28.4528 11.6628 27.7216 11.3598 27.4575 10.722C26.2677 7.84922 23.4378 5.83203 20.1396 5.83203Z" fill="#E1EAFD"/>
<path d="M20.1408 9.9987C18.437 9.9987 16.9955 11.1361 16.5404 12.6957C16.347 13.3584 15.653 13.7389 14.9903 13.5455C14.3275 13.3521 13.9471 12.6581 14.1405 11.9954C14.8983 9.39818 17.2961 7.4987 20.1408 7.4987C22.9855 7.4987 25.3834 9.39818 26.1412 11.9954C26.3346 12.6581 25.9542 13.3521 25.2914 13.5455C24.6287 13.7389 23.9347 13.3584 23.7413 12.6957C23.2862 11.1361 21.8447 9.9987 20.1408 9.9987Z" fill="#E1EAFD"/>
<path d="M21.8066 12.9154C21.8066 13.8358 21.0604 14.582 20.1399 14.582C19.2194 14.582 18.4732 13.8358 18.4732 12.9154C18.4732 11.9949 19.2194 11.2487 20.1399 11.2487C21.0604 11.2487 21.8066 11.9949 21.8066 12.9154Z" fill="#E1EAFD"/>
<path fill-rule="evenodd" clip-rule="evenodd" d="M6.08544 7.2954C5.74292 6.69601 4.97936 6.48776 4.37996 6.83027C3.78056 7.17279 3.57232 7.93636 3.91483 8.53575L10.227 19.582H9.99992C6.85722 19.582 5.28587 19.582 4.30956 20.5583C3.33325 21.5347 3.33325 23.106 3.33325 26.2487C3.33325 29.3914 3.33325 30.9627 4.30956 31.9391C5.28587 32.9154 6.85722 32.9154 9.99992 32.9154H29.9999C33.1426 32.9154 34.714 32.9154 35.6903 31.9391C36.6666 30.9627 36.6666 29.3914 36.6666 26.2487C36.6666 23.106 36.6666 21.5347 35.6903 20.5583C34.714 19.582 33.1426 19.582 29.9999 19.582H29.7729L36.085 8.53575C36.4275 7.93636 36.2193 7.17279 35.6199 6.83027C35.0205 6.48776 34.2569 6.69601 33.9144 7.2954L27.2477 18.9621L26.8812 19.582H13.1354L12.7521 18.9621L6.08544 7.2954ZM9.99992 27.9154C10.9204 27.9154 11.6666 27.1692 11.6666 26.2487C11.6666 25.3282 10.9204 24.582 9.99992 24.582C9.07944 24.582 8.33325 25.3282 8.33325 26.2487C8.33325 27.1692 9.07944 27.9154 9.99992 27.9154ZM16.6666 26.2487C16.6666 27.1692 15.9204 27.9154 14.9999 27.9154C14.0794 27.9154 13.3333 27.1692 13.3333 26.2487C13.3333 25.3282 14.0794 24.582 14.9999 24.582C15.9204 24.582 16.6666 25.3282 16.6666 26.2487ZM23.3333 24.9987C22.6429 24.9987 22.0833 25.5583 22.0833 26.2487C22.0833 26.9391 22.6429 27.4987 23.3333 27.4987H29.9999C30.6903 27.4987 31.2499 26.9391 31.2499 26.2487C31.2499 25.5583 30.6903 24.9987 29.9999 24.9987H23.3333Z" fill="#E1EAFD"/>
</svg>
