<svg width="20" height="20" viewBox="0 0 20 20" fill="none" xmlns="http://www.w3.org/2000/svg">
<path d="M19.1938 0.806245C20.2687 1.88124 20.2687 3.62415 19.1938 4.69914L18.6982 5.19469C18.5539 5.16345 18.3722 5.11589 18.1651 5.04404C17.6108 4.85172 16.8823 4.48827 16.197 3.803C15.5117 3.11774 15.1483 2.38923 14.956 1.8349C14.8841 1.62781 14.8366 1.44609 14.8053 1.30179L15.3009 0.806245C16.3759 -0.268748 18.1188 -0.268748 19.1938 0.806245Z" fill="#E1EAFD"/>
<path d="M12.5801 11.3128C12.1761 11.7168 11.9741 11.9188 11.7513 12.0926C11.4886 12.2975 11.2043 12.4732 10.9035 12.6166C10.6485 12.7381 10.3775 12.8284 9.83543 13.0091L6.97709 13.9619C6.71035 14.0508 6.41626 13.9814 6.21744 13.7826C6.01862 13.5837 5.9492 13.2897 6.03811 13.0229L6.99089 10.1646C7.17157 9.62253 7.26191 9.35151 7.38344 9.09652C7.52679 8.79572 7.70249 8.51143 7.90743 8.24868C8.08116 8.02595 8.28316 7.82394 8.68718 7.41993L13.6033 2.50385C13.867 3.19804 14.3293 4.05663 15.1363 4.86366C15.9434 5.67069 16.802 6.13296 17.4962 6.39674L12.5801 11.3128Z" fill="#E1EAFD"/>
<path d="M18.5355 18.5355C20 17.0711 20 14.714 20 10C20 8.45174 20 7.15774 19.9481 6.0661L13.586 12.4283C13.2347 12.7797 12.9708 13.0437 12.6738 13.2753C12.3252 13.5473 11.948 13.7804 11.5488 13.9706C11.2088 14.1327 10.8546 14.2506 10.3833 14.4076L7.45143 15.3849C6.64568 15.6535 5.75734 15.4438 5.15678 14.8432C4.55621 14.2427 4.34651 13.3543 4.61509 12.5486L5.59235 9.61674C5.74936 9.14535 5.86732 8.79118 6.02935 8.45119C6.21958 8.05204 6.45272 7.6748 6.72466 7.32615C6.9563 7.02918 7.22032 6.76528 7.57173 6.41404L13.9339 0.0518832C12.8423 0 11.5483 0 10 0C5.28595 0 2.92893 0 1.46447 1.46447C0 2.92893 0 5.28595 0 10C0 14.714 0 17.0711 1.46447 18.5355C2.92893 20 5.28595 20 10 20C14.714 20 17.0711 20 18.5355 18.5355Z" fill="#E1EAFD"/>
</svg>
