<svg width="126" height="125" viewBox="0 0 126 125" fill="none" xmlns="http://www.w3.org/2000/svg">
<path fill-rule="evenodd" clip-rule="evenodd" d="M0.933438 20.3024C0.5 22.5997 0.5 25.3576 0.5 30.8734V74.9375C0.5 98.5077 0.5 110.293 7.82233 117.615C15.1447 124.937 26.9298 124.938 50.5 124.938H75.5C99.0702 124.938 110.855 124.937 118.178 117.615C125.5 110.293 125.5 98.5077 125.5 74.9375V61.1744C125.5 44.7221 125.5 36.4959 120.691 31.1489C120.248 30.6571 119.78 30.189 119.289 29.7467C113.942 24.9375 105.715 24.9375 89.2631 24.9375H86.9277C79.7171 24.9375 76.1119 24.9375 72.7522 23.9798C70.9066 23.4538 69.1277 22.7169 67.4507 21.7839C64.3979 20.0854 61.8486 17.5361 56.75 12.4375L53.3109 8.99842C51.602 7.28953 50.7476 6.43509 49.8496 5.69072C45.9783 2.48147 41.2291 0.514289 36.2223 0.0460954C35.061 -0.0625 33.8527 -0.0625 31.4359 -0.0625C25.9201 -0.0625 23.1622 -0.0625 20.8649 0.370938C10.7519 2.279 2.8415 10.1894 0.933438 20.3024ZM63 57.75C65.5888 57.75 67.6875 59.8487 67.6875 62.4375V70.25H75.5C78.0888 70.25 80.1875 72.3487 80.1875 74.9375C80.1875 77.5263 78.0888 79.625 75.5 79.625H67.6875V87.4375C67.6875 90.0263 65.5888 92.125 63 92.125C60.4112 92.125 58.3125 90.0263 58.3125 87.4375V79.625H50.5C47.9112 79.625 45.8125 77.5263 45.8125 74.9375C45.8125 72.3487 47.9112 70.25 50.5 70.25H58.3125V62.4375C58.3125 59.8487 60.4112 57.75 63 57.75Z" fill="#E1EAFD"/>
</svg>
