<svg width="25" height="25" viewBox="0 0 25 25" fill="none" xmlns="http://www.w3.org/2000/svg">
<path d="M8.5 7.25C5.60051 7.25 3.25 9.60051 3.25 12.5C3.25 15.3995 5.60051 17.75 8.5 17.75H9.5C9.91421 17.75 10.25 18.0858 10.25 18.5C10.25 18.9142 9.91421 19.25 9.5 19.25H8.5C4.77208 19.25 1.75 16.2279 1.75 12.5C1.75 8.77208 4.77208 5.75 8.5 5.75H9.5C9.91421 5.75 10.25 6.08579 10.25 6.5C10.25 6.91421 9.91421 7.25 9.5 7.25H8.5Z" fill="#E1EAFD"/>
<path d="M8.74991 12.4999C8.74991 12.0857 9.08569 11.7499 9.49991 11.7499H15.4999C15.9141 11.7499 16.2499 12.0857 16.2499 12.4999C16.2499 12.9142 15.9141 13.2499 15.4999 13.2499H9.49991C9.08569 13.2499 8.74991 12.9142 8.74991 12.4999Z" fill="#E1EAFD"/>
<path d="M15.5 5.75C15.0858 5.75 14.75 6.08579 14.75 6.5C14.75 6.91421 15.0858 7.25 15.5 7.25H16.5C19.3995 7.25 21.75 9.60051 21.75 12.5C21.75 15.3995 19.3995 17.75 16.5 17.75H15.5C15.0858 17.75 14.75 18.0858 14.75 18.5C14.75 18.9142 15.0858 19.25 15.5 19.25H16.5C20.2279 19.25 23.25 16.2279 23.25 12.5C23.25 8.77208 20.2279 5.75 16.5 5.75H15.5Z" fill="#E1EAFD"/>
</svg>
