<svg width="21" height="20" viewBox="0 0 21 20" fill="none" xmlns="http://www.w3.org/2000/svg">
<path fill-rule="evenodd" clip-rule="evenodd" d="M9.21525 19.5277L9.46531 19.1053C9.86606 18.4282 10.0664 18.0897 10.3856 17.9009C10.7048 17.712 11.1212 17.6987 11.9539 17.6721C12.7347 17.6471 13.2595 17.579 13.7082 17.3931C14.6529 17.0018 15.4034 16.2513 15.7947 15.3066C16.0882 14.5981 16.0882 13.6999 16.0882 11.9035V11.1324C16.0882 8.60827 16.0882 7.34622 15.5201 6.4191C15.2022 5.90033 14.766 5.46416 14.2472 5.14626C13.3201 4.57813 12.0581 4.57812 9.53397 4.57812H7.22072C4.69663 4.57812 3.43458 4.57813 2.50747 5.14626C1.98871 5.46416 1.55254 5.90033 1.23464 6.4191C0.666504 7.34622 0.666504 8.60827 0.666504 11.1324V11.9035C0.666504 13.6999 0.666504 14.5981 0.95998 15.3066C1.35128 16.2513 2.10183 17.0018 3.04652 17.3931C3.49522 17.579 4.01998 17.6471 4.80077 17.6721C5.63349 17.6987 6.04984 17.712 6.36903 17.9009C6.68823 18.0897 6.88861 18.4282 7.28936 19.1053L7.53941 19.5277C7.91198 20.1572 8.84269 20.1572 9.21525 19.5277ZM11.7508 12.289C12.2832 12.289 12.7147 11.8574 12.7147 11.3251C12.7147 10.7928 12.2832 10.3613 11.7508 10.3613C11.2185 10.3613 10.787 10.7928 10.787 11.3251C10.787 11.8574 11.2185 12.289 11.7508 12.289ZM9.3412 11.3251C9.3412 11.8574 8.90967 12.289 8.37735 12.289C7.84503 12.289 7.41349 11.8574 7.41349 11.3251C7.41349 10.7928 7.84503 10.3613 8.37735 10.3613C8.90967 10.3613 9.3412 10.7928 9.3412 11.3251ZM5.00385 12.289C5.53618 12.289 5.96771 11.8574 5.96771 11.3251C5.96771 10.7928 5.53618 10.3613 5.00385 10.3613C4.47153 10.3613 4.04 10.7928 4.04 11.3251C4.04 11.8574 4.47153 12.289 5.00385 12.289Z" fill="#E1EAFD"/>
<path d="M13.8361 1.61316e-07C14.9879 -7.54314e-06 15.9037 -1.36644e-05 16.6382 0.0698247C17.3914 0.141434 18.0282 0.291538 18.5954 0.639155C19.179 0.996795 19.6697 1.48748 20.0274 2.0711C20.375 2.63836 20.5251 3.27514 20.5967 4.02829C20.6665 4.76279 20.6665 5.67871 20.6665 6.83039V7.61699C20.6665 8.43666 20.6665 9.08861 20.6304 9.61728C20.5935 10.1581 20.5165 10.6226 20.3363 11.0575C19.8961 12.1202 19.0518 12.9646 17.989 13.4048C17.9624 13.4158 17.9357 13.4265 17.9089 13.4367C17.7805 13.4858 17.6707 13.5278 17.5742 13.5591C17.5882 13.0903 17.5882 12.5563 17.5882 11.9537V11.0614C17.5882 9.85978 17.5882 8.85321 17.5104 8.03489C17.429 7.17817 17.2518 6.37421 16.799 5.63536C16.3574 4.91475 15.7516 4.30889 15.031 3.8673C14.2921 3.41453 13.4882 3.23733 12.6314 3.15588C11.8131 3.07807 10.8065 3.07809 9.60493 3.07812H7.14977C6.33368 3.0781 5.60755 3.07809 4.96926 3.10245C4.999 2.9994 5.03974 2.88128 5.08756 2.74264C5.1689 2.50682 5.27169 2.28381 5.40204 2.0711C5.75968 1.48748 6.25037 0.996796 6.83398 0.639155C7.40124 0.291538 8.03802 0.141434 8.79116 0.0698247C9.52568 -1.36644e-05 10.4416 -7.54314e-06 11.5933 1.61316e-07H13.8361Z" fill="#E1EAFD"/>
</svg>
