<svg width="24" height="25" viewBox="0 0 24 25" fill="none" xmlns="http://www.w3.org/2000/svg">
<circle cx="12" cy="12.5" r="12" fill="#E1EAFD"/>
<path d="M9.61111 10.3235H15.3889M9.61111 13.3824H13.9444M16.8333 6.5C17.408 6.5 17.9591 6.7417 18.3654 7.17193C18.7717 7.60216 19 8.18568 19 8.79412V14.9118C19 15.5202 18.7717 16.1037 18.3654 16.534C17.9591 16.9642 17.408 17.2059 16.8333 17.2059H13.2222L9.61111 19.5V17.2059H8.16667C7.59203 17.2059 7.04093 16.9642 6.6346 16.534C6.22827 16.1037 6 15.5202 6 14.9118V8.79412C6 8.18568 6.22827 7.60216 6.6346 7.17193C7.04093 6.7417 7.59203 6.5 8.16667 6.5C11.5512 6.5 13.4488 6.5 16.8333 6.5Z" stroke="#010C1E" stroke-linecap="round" stroke-linejoin="round"/>
</svg>
