<svg width="36" height="37" viewBox="0 0 36 37" fill="none" xmlns="http://www.w3.org/2000/svg">
<path d="M24.7783 25.252C25.0408 25.0472 25.2789 24.8091 25.7551 24.333L31.6912 18.3969C31.8347 18.2534 31.769 18.0062 31.5773 17.9396C30.8766 17.6966 29.9651 17.2401 29.1125 16.3875C28.2599 15.5349 27.8035 14.6234 27.5604 13.9227C27.4938 13.731 27.2466 13.6653 27.1031 13.8088L21.167 19.7449C20.6909 20.2211 20.4528 20.4592 20.248 20.7217C20.0065 21.0313 19.7994 21.3664 19.6305 21.7209C19.4873 22.0214 19.3808 22.3408 19.1678 22.9797L18.8927 23.8051L18.4552 25.1177L18.0449 26.3484C17.9401 26.6628 18.0219 27.0094 18.2563 27.2437C18.4906 27.4781 18.8372 27.5599 19.1516 27.4551L20.3823 27.0448L21.6949 26.6073L22.5203 26.3322L22.5203 26.3322C23.1592 26.1192 23.4786 26.0127 23.7791 25.8695C24.1336 25.7006 24.4687 25.4935 24.7783 25.252Z" fill="#E1EAFD"/>
<path d="M33.5498 16.5383C34.8167 15.2713 34.8167 13.2172 33.5498 11.9502C32.2828 10.6833 30.2287 10.6833 28.9617 11.9502L28.7709 12.1411C28.5867 12.3252 28.5033 12.5824 28.5493 12.8388C28.5782 13 28.6319 13.2358 28.7295 13.5171C28.9247 14.0797 29.2933 14.8182 29.9875 15.5125C30.6818 16.2067 31.4203 16.5753 31.9829 16.7705C32.2642 16.8681 32.5 16.9218 32.6612 16.9507C32.9176 16.9967 33.1748 16.9133 33.3589 16.7291L33.5498 16.5383Z" fill="#E1EAFD"/>
<path fill-rule="evenodd" clip-rule="evenodd" d="M6.25736 5.25736C4.5 7.01472 4.5 9.84315 4.5 15.5V21.5C4.5 27.1569 4.5 29.9853 6.25736 31.7426C8.01472 33.5 10.8431 33.5 16.5 33.5H19.5C25.1569 33.5 27.9853 33.5 29.7426 31.7426C31.4718 30.0135 31.4995 27.2473 31.5 21.7701L27.2726 25.9976C26.8679 26.4025 26.5365 26.7342 26.1622 27.0261C25.7237 27.3681 25.2492 27.6614 24.7472 27.9006C24.3187 28.1049 23.8738 28.253 23.3307 28.4338L19.8631 29.5896C18.7403 29.9639 17.5023 29.6717 16.6653 28.8347C15.8284 27.9978 15.5362 26.7598 15.9104 25.6369L16.3207 24.4062L17.0334 22.2682L17.0662 22.1695C17.2471 21.6263 17.3952 21.1814 17.5994 20.7529C17.8387 20.2509 18.1319 19.7764 18.474 19.3379C18.7659 18.9636 19.0976 18.6321 19.5025 18.2275L25.5122 12.2178L27.18 10.5501L27.3708 10.3592C28.4439 9.28612 29.8505 8.74971 31.2569 8.75C31.03 7.20418 30.5912 6.10591 29.7426 5.25736C27.9853 3.5 25.1569 3.5 19.5 3.5H16.5C10.8431 3.5 8.01472 3.5 6.25736 5.25736ZM10.875 14C10.875 13.3787 11.3787 12.875 12 12.875H21.75C22.3713 12.875 22.875 13.3787 22.875 14C22.875 14.6213 22.3713 15.125 21.75 15.125H12C11.3787 15.125 10.875 14.6213 10.875 14ZM10.875 20C10.875 19.3787 11.3787 18.875 12 18.875H15.75C16.3713 18.875 16.875 19.3787 16.875 20C16.875 20.6213 16.3713 21.125 15.75 21.125H12C11.3787 21.125 10.875 20.6213 10.875 20ZM10.875 26C10.875 25.3787 11.3787 24.875 12 24.875H14.25C14.8713 24.875 15.375 25.3787 15.375 26C15.375 26.6213 14.8713 27.125 14.25 27.125H12C11.3787 27.125 10.875 26.6213 10.875 26Z" fill="#E1EAFD"/>
</svg>
