<svg width="20" height="21" viewBox="0 0 20 21" fill="none" xmlns="http://www.w3.org/2000/svg">
<path fill-rule="evenodd" clip-rule="evenodd" d="M7.5924 1.70027C7.34888 1.9078 7.22711 2.01158 7.09706 2.09874C6.79896 2.29854 6.46417 2.43721 6.1121 2.50672C5.95851 2.53705 5.79903 2.54977 5.48008 2.57522C4.6787 2.63918 4.278 2.67115 3.94371 2.78923C3.17051 3.06233 2.56233 3.67051 2.28923 4.44371C2.17115 4.778 2.13918 5.1787 2.07522 5.98008C2.04977 6.29903 2.03705 6.45851 2.00672 6.6121C1.93721 6.96417 1.79854 7.29896 1.59874 7.59706C1.51158 7.72711 1.40781 7.84887 1.20027 8.0924C0.678835 8.70428 0.418104 9.01023 0.265216 9.33011C-0.0884052 10.07 -0.0884052 10.93 0.265216 11.6699C0.418105 11.9898 0.678828 12.2957 1.20027 12.9076C1.40778 13.1511 1.51158 13.2729 1.59874 13.4029C1.79854 13.701 1.93721 14.0358 2.00672 14.3879C2.03705 14.5415 2.04977 14.701 2.07522 15.0199C2.13918 15.8213 2.17115 16.222 2.28923 16.5563C2.56233 17.3295 3.17051 17.9377 3.94371 18.2108C4.278 18.3288 4.6787 18.3608 5.48008 18.4248C5.79903 18.4502 5.95851 18.463 6.1121 18.4933C6.46417 18.5628 6.79896 18.7015 7.09706 18.9013C7.22711 18.9884 7.34887 19.0922 7.5924 19.2997C8.20429 19.8212 8.51023 20.0819 8.83011 20.2348C9.56995 20.5884 10.43 20.5884 11.1699 20.2348C11.4898 20.0819 11.7957 19.8212 12.4076 19.2997C12.6511 19.0922 12.7729 18.9884 12.9029 18.9013C13.201 18.7015 13.5358 18.5628 13.8879 18.4933C14.0415 18.463 14.201 18.4502 14.5199 18.4248C15.3213 18.3608 15.722 18.3288 16.0563 18.2108C16.8295 17.9377 17.4377 17.3295 17.7108 16.5563C17.8288 16.222 17.8608 15.8213 17.9248 15.0199C17.9502 14.701 17.963 14.5415 17.9933 14.3879C18.0628 14.0358 18.2015 13.701 18.4013 13.4029C18.4884 13.2729 18.5922 13.1511 18.7997 12.9076C19.3212 12.2957 19.5819 11.9898 19.7348 11.6699C20.0884 10.93 20.0884 10.07 19.7348 9.33011C19.5819 9.01023 19.3212 8.70429 18.7997 8.0924C18.5922 7.84887 18.4884 7.72711 18.4013 7.59706C18.2015 7.29896 18.0628 6.96417 17.9933 6.6121C17.963 6.45851 17.9502 6.29903 17.9248 5.98008C17.8608 5.1787 17.8288 4.778 17.7108 4.44371C17.4377 3.67051 16.8295 3.06233 16.0563 2.78923C15.722 2.67115 15.3213 2.63918 14.5199 2.57522C14.201 2.54977 14.0415 2.53705 13.8879 2.50672C13.5358 2.43721 13.201 2.29854 12.9029 2.09874C12.7729 2.01158 12.6511 1.90781 12.4076 1.70027C11.7957 1.17883 11.4898 0.918105 11.1699 0.765216C10.43 0.411595 9.56995 0.411595 8.83011 0.765216C8.51023 0.918105 8.20428 1.17883 7.5924 1.70027ZM14.3735 8.36314C14.6913 8.0453 14.6913 7.53 14.3735 7.21216C14.0557 6.89433 13.5403 6.89433 13.2225 7.21216L8.37227 12.0624L6.77746 10.4676C6.45963 10.1498 5.94432 10.1498 5.62649 10.4676C5.30866 10.7854 5.30866 11.3007 5.62649 11.6186L7.79678 13.7889C8.11461 14.1067 8.62992 14.1067 8.94775 13.7889L14.3735 8.36314Z" fill="#E1EAFD"/>
</svg>
