<svg width="30" height="31" viewBox="0 0 30 31" fill="none" xmlns="http://www.w3.org/2000/svg">
<path fill-rule="evenodd" clip-rule="evenodd" d="M30 15.5C30 23.7843 23.2843 30.5 15 30.5C6.71573 30.5 0 23.7843 0 15.5C0 7.21573 6.71573 0.5 15 0.5C23.2843 0.5 30 7.21573 30 15.5ZM21.0455 10.9545C21.4848 11.3938 21.4848 12.1062 21.0455 12.5455L13.5455 20.0455C13.1062 20.4848 12.3938 20.4848 11.9545 20.0455L8.9545 17.0455C8.51517 16.6062 8.51517 15.8938 8.9545 15.4545C9.39384 15.0152 10.1062 15.0152 10.5455 15.4545L12.75 17.659L16.1023 14.3068L19.4545 10.9545C19.8938 10.5152 20.6062 10.5152 21.0455 10.9545Z" fill="#1D9BF0"/>
</svg>
