<svg width="80" height="81" viewBox="0 0 80 81" fill="none" xmlns="http://www.w3.org/2000/svg">
<path d="M57.643 8.49673C56.6667 9.47304 56.6667 11.0444 56.6667 14.1871V57.5204C56.6667 60.6631 56.6667 62.2345 57.643 63.2108C58.6193 64.1871 60.1906 64.1871 63.3333 64.1871C66.476 64.1871 68.0474 64.1871 69.0237 63.2108C70 62.2345 70 60.6631 70 57.5204V14.1871C70 11.0444 70 9.47304 69.0237 8.49673C68.0474 7.52042 66.476 7.52042 63.3333 7.52042C60.1906 7.52042 58.6193 7.52042 57.643 8.49673Z" fill="#1D9BF0"/>
<path d="M33.3333 24.1871C33.3333 21.0444 33.3333 19.473 34.3096 18.4967C35.286 17.5204 36.8573 17.5204 40 17.5204C43.1427 17.5204 44.714 17.5204 45.6904 18.4967C46.6667 19.473 46.6667 21.0444 46.6667 24.1871V57.5204C46.6667 60.6631 46.6667 62.2345 45.6904 63.2108C44.714 64.1871 43.1427 64.1871 40 64.1871C36.8573 64.1871 35.286 64.1871 34.3096 63.2108C33.3333 62.2345 33.3333 60.6631 33.3333 57.5204V24.1871Z" fill="#1D9BF0"/>
<path d="M10.9763 31.8301C10 32.8064 10 34.3777 10 37.5204V57.5204C10 60.6631 10 62.2345 10.9763 63.2108C11.9526 64.1871 13.524 64.1871 16.6667 64.1871C19.8094 64.1871 21.3807 64.1871 22.357 63.2108C23.3333 62.2345 23.3333 60.6631 23.3333 57.5204V37.5204C23.3333 34.3777 23.3333 32.8064 22.357 31.8301C21.3807 30.8538 19.8094 30.8538 16.6667 30.8538C13.524 30.8538 11.9526 30.8538 10.9763 31.8301Z" fill="#1D9BF0"/>
<path d="M10 71.6871C8.61929 71.6871 7.5 72.8064 7.5 74.1871C7.5 75.5678 8.61929 76.6871 10 76.6871H70C71.3807 76.6871 72.5 75.5678 72.5 74.1871C72.5 72.8064 71.3807 71.6871 70 71.6871H10Z" fill="#1D9BF0"/>
</svg>
