<svg width="38" height="38" viewBox="0 0 38 38" fill="none" xmlns="http://www.w3.org/2000/svg">
<path fill-rule="evenodd" clip-rule="evenodd" d="M19 37.5996C29.3553 37.5996 37.75 29.205 37.75 18.8496C37.75 8.49427 29.3553 0.0996094 19 0.0996094C8.64466 0.0996094 0.25 8.49427 0.25 18.8496C0.25 21.849 0.95428 24.6839 2.20649 27.198C2.53926 27.8661 2.65002 28.6297 2.4571 29.3508L1.34033 33.5246C0.855539 35.3365 2.51315 36.9941 4.32503 36.5093L8.49885 35.3925C9.21987 35.1996 9.98351 35.3104 10.6516 35.6431C13.1657 36.8953 16.0006 37.5996 19 37.5996ZM11.5 21.1934C10.7233 21.1934 10.0938 21.823 10.0938 22.5996C10.0938 23.3763 10.7233 24.0059 11.5 24.0059H21.8125C22.5892 24.0059 23.2188 23.3763 23.2188 22.5996C23.2188 21.823 22.5892 21.1934 21.8125 21.1934H11.5ZM10.0938 16.0371C10.0938 15.2605 10.7233 14.6309 11.5 14.6309H26.5C27.2766 14.6309 27.9062 15.2605 27.9062 16.0371C27.9062 16.8138 27.2766 17.4434 26.5 17.4434H11.5C10.7233 17.4434 10.0938 16.8138 10.0938 16.0371Z" fill="#E1EAFD"/>
</svg>
