<svg width="36" height="37" viewBox="0 0 36 37" fill="none" xmlns="http://www.w3.org/2000/svg">
<path fill-rule="evenodd" clip-rule="evenodd" d="M33 18.3538C33 26.638 26.2843 33.3538 18 33.3538C9.71573 33.3538 3 26.638 3 18.3538C3 10.0695 9.71573 3.35376 18 3.35376C26.2843 3.35376 33 10.0695 33 18.3538ZM24.0455 13.8083C24.4848 14.2476 24.4848 14.9599 24.0455 15.3993L16.5455 22.8993C16.1062 23.3386 15.3938 23.3386 14.9545 22.8993L11.9545 19.8993C11.5152 19.4599 11.5152 18.7476 11.9545 18.3083C12.3938 17.8689 13.1062 17.8689 13.5455 18.3083L15.75 20.5128L19.1023 17.1605L22.4545 13.8083C22.8938 13.3689 23.6062 13.3689 24.0455 13.8083Z" fill="#1D9BF0"/>
</svg>
