<svg width="46" height="46" viewBox="0 0 46 46" fill="none" xmlns="http://www.w3.org/2000/svg">
<path fill-rule="evenodd" clip-rule="evenodd" d="M4.30273 21.4434C5.02184 11.7448 13.1185 4.09961 23.0008 4.09961C21.4429 4.09961 20.0559 4.7825 18.9148 5.82672C17.7794 6.86571 16.82 8.31606 16.044 10.0305C15.2634 11.7551 14.6571 13.7721 14.2467 15.9611C13.9177 17.7158 13.7175 19.5656 13.6507 21.4434H4.30273ZM4.30273 24.2559H13.6507C13.7175 26.1336 13.9177 27.9835 14.2467 29.7381C14.6571 31.9271 15.2634 33.9441 16.044 35.6687C16.82 37.3832 17.7794 38.8335 18.9148 39.8725C20.0559 40.9167 21.4429 41.5996 23.0008 41.5996C13.1185 41.5996 5.02184 33.9544 4.30273 24.2559Z" fill="#E1EAFD"/>
<path d="M23.0008 6.71589C22.4852 6.71589 21.819 6.93529 21.0444 7.64414C20.2641 8.35822 19.4829 9.47738 18.7928 11.0022C18.1072 12.5169 17.5505 14.3454 17.1674 16.3887C16.8657 17.9979 16.6785 19.7037 16.6128 21.4434H29.3888C29.3231 19.7037 29.1359 17.9979 28.8342 16.3887C28.4511 14.3454 27.8944 12.5169 27.2088 11.0022C26.5187 9.47739 25.7375 8.35823 24.9572 7.64414C24.1826 6.93529 23.5164 6.71589 23.0008 6.71589Z" fill="#E1EAFD"/>
<path d="M17.1674 29.3105C17.5505 31.3538 18.1072 33.1824 18.7928 34.697C19.4829 36.2218 20.2641 37.341 21.0444 38.0551C21.819 38.7639 22.4852 38.9833 23.0008 38.9833C23.5164 38.9833 24.1826 38.7639 24.9572 38.0551C25.7375 37.341 26.5187 36.2218 27.2088 34.697C27.8944 33.1824 28.4511 31.3538 28.8342 29.3105C29.1359 27.7013 29.3231 25.9955 29.3888 24.2559H16.6128C16.6785 25.9955 16.8657 27.7013 17.1674 29.3105Z" fill="#E1EAFD"/>
<path d="M23.0008 4.09961C24.5587 4.09961 25.9457 4.7825 27.0868 5.82672C28.2221 6.86571 29.1816 8.31607 29.9576 10.0305C30.7382 11.7551 31.3445 13.7721 31.7549 15.9611C32.0839 17.7158 32.2841 19.5656 32.3508 21.4434H41.6989C40.9797 11.7448 32.8831 4.09961 23.0008 4.09961Z" fill="#E1EAFD"/>
<path d="M31.7549 29.7381C31.3445 31.9271 30.7382 33.9441 29.9576 35.6687C29.1816 37.3832 28.2221 38.8335 27.0868 39.8725C25.9457 40.9167 24.5587 41.5996 23.0008 41.5996C32.8831 41.5996 40.9797 33.9544 41.6989 24.2559H32.3508C32.2841 26.1336 32.0839 27.9835 31.7549 29.7381Z" fill="#E1EAFD"/>
</svg>
