<svg width="20" height="20" viewBox="0 0 20 20" fill="none" xmlns="http://www.w3.org/2000/svg">
<path fill-rule="evenodd" clip-rule="evenodd" d="M13.612 0.0382593C12.59 1.82539e-07 11.3988 0 10 0C5.28595 0 2.92893 0 1.46447 1.46447C0 2.92893 0 5.28595 0 10C0 14.714 0 17.0711 1.46447 18.5355C2.92893 20 5.28595 20 10 20C14.714 20 17.0711 20 18.5355 18.5355C20 17.0711 20 14.714 20 10C20 8.60123 20 7.41 19.9617 6.38802C19.1703 7.08042 18.1342 7.5 17 7.5C14.5147 7.5 12.5 5.48528 12.5 3C12.5 1.86584 12.9196 0.829672 13.612 0.0382593ZM15.4801 7.42383C15.7983 7.68901 15.8413 8.16193 15.5762 8.48014L13.7473 10.6748C13.4189 11.069 13.1228 11.4244 12.8462 11.6742C12.5452 11.9459 12.1662 12.188 11.6667 12.188C11.1672 12.188 10.7881 11.9459 10.4872 11.6742C10.2106 11.4244 9.91447 11.069 9.58601 10.6748L9.29361 10.3239C8.92282 9.87892 8.69512 9.6085 8.50753 9.43911C8.42054 9.36055 8.36893 9.32924 8.3442 9.31728C8.33917 9.31484 8.3356 9.31338 8.33333 9.31254L8.32923 9.31419L8.32247 9.31728C8.29773 9.32924 8.24613 9.36055 8.15914 9.43911C7.97155 9.6085 7.74385 9.87892 7.37306 10.3239L5.57617 12.4801C5.31099 12.7983 4.83807 12.8413 4.51986 12.5762C4.20165 12.311 4.15866 11.8381 4.42383 11.5199L6.25267 9.32525C6.58113 8.93101 6.87725 8.5756 7.15384 8.32583C7.45478 8.05408 7.83384 7.81205 8.33333 7.81205C8.83282 7.81205 9.21189 8.05408 9.51283 8.32583C9.78942 8.5756 10.0855 8.93101 10.414 9.32525L10.7064 9.67613C11.0772 10.1211 11.3049 10.3915 11.4925 10.5609C11.5795 10.6394 11.6311 10.6708 11.6558 10.6827L11.659 10.6842C11.6624 10.6858 11.6667 10.6875 11.6667 10.6875C11.6689 10.6866 11.6725 10.6852 11.6775 10.6827C11.7023 10.6708 11.7539 10.6394 11.8409 10.5609C12.0284 10.3915 12.2562 10.1211 12.6269 9.67613L14.4238 7.51986C14.689 7.20165 15.1619 7.15866 15.4801 7.42383Z" fill="#E1EAFD"/>
</svg>
