<svg width="46" height="46" viewBox="0 0 46 46" fill="none" xmlns="http://www.w3.org/2000/svg">
<path fill-rule="evenodd" clip-rule="evenodd" d="M6.4467 10.0463C4.25 12.243 4.25 15.7785 4.25 22.8496C4.25 29.9207 4.25 33.4562 6.4467 35.6529C8.6434 37.8496 12.1789 37.8496 19.25 37.8496H26.75C33.8211 37.8496 37.3566 37.8496 39.5533 35.6529C41.75 33.4562 41.75 29.9207 41.75 22.8496C41.75 15.7785 41.75 12.243 39.5533 10.0463C37.3566 7.84961 33.8211 7.84961 26.75 7.84961H19.25C12.1789 7.84961 8.6434 7.84961 6.4467 10.0463ZM35.3303 14.4493C35.8275 15.046 35.7469 15.9327 35.1503 16.4299L31.0319 19.8619C29.3699 21.2469 28.0229 22.3695 26.834 23.1341C25.5956 23.9306 24.3895 24.4338 23 24.4338C21.6105 24.4338 20.4044 23.9306 19.166 23.1341C17.9771 22.3695 16.6301 21.2469 14.9682 19.8619L10.8497 16.4299C10.2531 15.9327 10.1725 15.046 10.6697 14.4493C11.1669 13.8527 12.0536 13.7721 12.6503 14.2693L16.6982 17.6426C18.4475 19.1003 19.662 20.1091 20.6873 20.7686C21.6799 21.407 22.353 21.6213 23 21.6213C23.647 21.6213 24.3201 21.407 25.3127 20.7686C26.338 20.1091 27.5525 19.1003 29.3018 17.6426L33.3497 14.2693C33.9464 13.7721 34.8331 13.8527 35.3303 14.4493Z" fill="#E1EAFD"/>
</svg>
