<svg width="81" height="81" viewBox="0 0 81 81" fill="none" xmlns="http://www.w3.org/2000/svg">
<path d="M73.8249 20.8538C73.8249 26.3766 69.3477 30.8538 63.8249 30.8538C58.302 30.8538 53.8249 26.3766 53.8249 20.8538C53.8249 15.3309 58.302 10.8538 63.8249 10.8538C69.3477 10.8538 73.8249 15.3309 73.8249 20.8538Z" fill="#1D9BF0"/>
<path fill-rule="evenodd" clip-rule="evenodd" d="M47.1582 17.5204H33.8249C21.2541 17.5204 14.9687 17.5204 11.0634 21.4257C7.1582 25.3309 7.1582 31.6163 7.1582 44.1871C7.1582 56.7579 7.1582 63.0433 11.0634 66.9485C14.9687 70.8538 21.2541 70.8538 33.8249 70.8538H47.1582C59.729 70.8538 66.0144 70.8538 69.9196 66.9485C73.8249 63.0433 73.8249 56.7579 73.8249 44.1871C73.8249 39.3425 73.8249 35.4315 73.6013 32.2304C70.9758 34.4888 67.5597 35.8538 63.8249 35.8538C62.2293 35.8538 60.6919 35.6046 59.2494 35.1431L54.7704 38.8756C51.8159 41.3378 49.4212 43.3335 47.3076 44.6928C45.106 46.1088 42.9618 47.0033 40.4915 47.0033C38.0213 47.0033 35.8771 46.1088 33.6755 44.6928C31.5619 43.3335 29.1672 41.3379 26.2127 38.8757L18.8911 32.7743C17.8304 31.8904 17.6871 30.314 18.571 29.2533C19.4549 28.1926 21.0313 28.0493 22.092 28.9332L29.2883 34.9301C32.3982 37.5217 34.5573 39.3151 36.3801 40.4875C38.1447 41.6224 39.3413 42.0033 40.4915 42.0033C41.6418 42.0033 42.8384 41.6224 44.6029 40.4875C46.4258 39.3151 48.5849 37.5217 51.6948 34.9301L54.493 32.5983C51.0391 29.8502 48.8249 25.6106 48.8249 20.8538C48.8249 19.7084 48.9533 18.5929 49.1964 17.5211C48.536 17.5204 47.8568 17.5204 47.1582 17.5204Z" fill="#1D9BF0"/>
</svg>
