<svg width="41" height="40" viewBox="0 0 41 40" fill="none" xmlns="http://www.w3.org/2000/svg">
<path d="M37.8108 0C39.3287 0 40.668 1.33929 40.668 2.94643V37.1429C40.668 38.75 39.3287 40 37.8108 40H3.43583C1.91797 40 0.667969 38.75 0.667969 37.1429V2.94643C0.667969 1.33929 1.91797 0 3.43583 0H37.8108ZM12.7215 34.2857V15.2679H6.82868V34.2857H12.7215ZM9.77511 12.5893C11.6501 12.5893 13.168 11.0714 13.168 9.19643C13.168 7.32143 11.6501 5.71429 9.77511 5.71429C7.81083 5.71429 6.29297 7.32143 6.29297 9.19643C6.29297 11.0714 7.81083 12.5893 9.77511 12.5893ZM34.9537 34.2857V23.8393C34.9537 18.75 33.793 14.7321 27.8108 14.7321C24.9537 14.7321 22.9894 16.3393 22.1858 17.8571H22.0965V15.2679H16.4715V34.2857H22.3644V24.9107C22.3644 22.4107 22.8108 20 25.9358 20C28.9715 20 28.9715 22.8571 28.9715 25V34.2857H34.9537Z" fill="#E1EAFD"/>
</svg>
