<svg width="81" height="81" viewBox="0 0 81 81" fill="none" xmlns="http://www.w3.org/2000/svg">
<path d="M70.8913 10.2079C74.4746 13.7912 74.4746 19.6009 70.8913 23.1842L69.2395 24.836C68.7585 24.7319 68.1528 24.5733 67.4624 24.3338C65.6147 23.6928 63.1863 22.4813 60.9021 20.1971C58.6179 17.9128 57.4064 15.4845 56.7653 13.6367C56.5258 12.9464 56.3673 12.3407 56.2632 11.8597L57.915 10.2079C61.4983 6.62456 67.308 6.62456 70.8913 10.2079Z" fill="#1D9BF0"/>
<path d="M48.8457 45.2298C47.499 46.5765 46.8256 47.2499 46.0832 47.829C45.2074 48.5121 44.2597 49.0977 43.2571 49.5756C42.4071 49.9807 41.5037 50.2818 39.6969 50.8841L30.1691 54.06C29.2799 54.3564 28.2996 54.125 27.6369 53.4622C26.9742 52.7995 26.7428 51.8192 27.0392 50.9301L30.2151 41.4023C30.8174 39.5955 31.1185 38.6921 31.5236 37.8421C32.0014 36.8394 32.5871 35.8918 33.2702 35.016C33.8493 34.2736 34.5227 33.6002 35.8694 32.2535L52.2563 15.8665C53.1356 18.1805 54.6765 21.0425 57.3666 23.7326C60.0567 26.4227 62.9186 27.9636 65.2326 28.8429L48.8457 45.2298Z" fill="#1D9BF0"/>
<path d="M68.6972 69.3055C73.5788 64.4239 73.5788 56.5672 73.5788 40.8537C73.5788 35.6929 73.5788 31.3795 73.4058 27.7407L52.1986 48.948C51.0278 50.1193 50.1482 50.9994 49.1583 51.7715C47.9961 52.678 46.7387 53.4551 45.4081 54.0892C44.2749 54.6293 43.0942 55.0225 41.523 55.5459L31.7502 58.8034C29.0644 59.6987 26.1033 58.9997 24.1014 56.9978C22.0995 54.9959 21.4005 52.0348 22.2957 49.349L25.5533 39.5762C26.0766 38.0049 26.4698 36.8243 27.01 35.691C27.644 34.3605 28.4212 33.1031 29.3277 31.9409C30.0998 30.951 30.9799 30.0713 32.1512 28.9005L53.3585 7.69333C49.7197 7.52039 45.4063 7.52039 40.2454 7.52039C24.532 7.52039 16.6752 7.52039 11.7937 12.4019C6.91211 17.2835 6.91211 25.1402 6.91211 40.8537C6.91211 56.5672 6.91211 64.4239 11.7937 69.3055C16.6752 74.1871 24.532 74.1871 40.2454 74.1871C55.9589 74.1871 63.8157 74.1871 68.6972 69.3055Z" fill="#1D9BF0"/>
</svg>
