<svg width="31" height="31" viewBox="0 0 31 31" fill="none" xmlns="http://www.w3.org/2000/svg">
<path fill-rule="evenodd" clip-rule="evenodd" d="M30.666 15.5C30.666 23.7843 23.9503 30.5 15.666 30.5C7.38174 30.5 0.666016 23.7843 0.666016 15.5C0.666016 7.21573 7.38174 0.5 15.666 0.5C23.9503 0.5 30.666 7.21573 30.666 15.5ZM11.1205 10.9545C11.5598 10.5151 12.2721 10.5151 12.7114 10.9545L15.666 13.909L18.6205 10.9545C19.0598 10.5152 19.7721 10.5152 20.2114 10.9545C20.6508 11.3938 20.6508 12.1062 20.2114 12.5455L17.257 15.5L20.2114 18.4544C20.6508 18.8938 20.6508 19.6061 20.2114 20.0454C19.7721 20.4848 19.0598 20.4848 18.6204 20.0454L15.666 17.091L12.7115 20.0455C12.2721 20.4848 11.5598 20.4848 11.1205 20.0455C10.6811 19.6061 10.6811 18.8938 11.1205 18.4545L14.075 15.5L11.1205 12.5455C10.6811 12.1061 10.6811 11.3938 11.1205 10.9545Z" fill="#FF6256"/>
</svg>
