<svg width="22" height="22" viewBox="0 0 22 22" fill="none" xmlns="http://www.w3.org/2000/svg">
<path d="M11 0C4.92491 0 0 4.92491 0 11C0 17.0754 4.92491 22 11 22C17.0754 22 22 17.0754 22 11C22 4.92491 17.0754 0 11 0ZM11 20.6467C5.69284 20.6467 1.375 16.3072 1.375 11C1.375 5.6928 5.69284 1.37496 11 1.37496C16.3072 1.37496 20.625 5.69282 20.625 11C20.625 16.3071 16.3072 20.6467 11 20.6467ZM15.39 6.97503L8.9361 13.4695L6.0297 10.5631C5.76123 10.2946 5.32604 10.2946 5.05723 10.5631C4.78876 10.8316 4.78876 11.2667 5.05723 11.5352L8.46001 14.9383C8.72848 15.2065 9.16367 15.2065 9.43248 14.9383C9.46342 14.9074 9.48991 14.8737 9.51397 14.8387L16.3628 7.94748C16.631 7.67901 16.631 7.24382 16.3628 6.97503C16.094 6.70656 15.6588 6.70656 15.39 6.97503Z" fill="#E1EAFD"/>
</svg>
