<svg width="41" height="40" viewBox="0 0 41 40" fill="none" xmlns="http://www.w3.org/2000/svg">
<path d="M39.4545 10.4607C40.332 13.532 40.332 20.1134 40.332 20.1134C40.332 20.1134 40.332 26.6216 39.4545 29.766C39.0158 31.521 37.6264 32.8373 35.9445 33.2761C32.8 34.0805 20.3686 34.0805 20.3686 34.0805C20.3686 34.0805 7.86402 34.0805 4.7196 33.2761C3.0377 32.8373 1.6483 31.521 1.20955 29.766C0.332031 26.6216 0.332031 20.1134 0.332031 20.1134C0.332031 20.1134 0.332031 13.532 1.20955 10.4607C1.6483 8.70567 3.0377 7.31627 4.7196 6.87751C7.86402 6 20.3686 6 20.3686 6C20.3686 6 32.8 6 35.9445 6.87751C37.6264 7.31627 39.0158 8.70567 39.4545 10.4607ZM16.2735 26.0366L26.6574 20.1134L16.2735 14.1901V26.0366Z" fill="#E1EAFD"/>
</svg>
